<svg xmlns="http://www.w3.org/2000/svg" fill="none" viewBox="0 0 25 25" width="48" height="48" class="form-header-menus__icon"><g clip-path="url(#clip0_7803_6139)"><path fill="#fff" d="M12.125 24c6.627 0 12-5.373 12-12s-5.373-12-12-12-12 5.373-12 12 5.373 12 12 12"></path><mask id="a" width="14" height="14" x="5" y="5" maskUnits="userSpaceOnUse" style="mask-type:luminance;"><path fill="#fff" d="M18.625 5.5h-13v13h13z"></path></mask><g mask="url(#a)"><path fill="#F67B35" d="M5.815 17.67c.54-1.49 1.54-2.73 2.51-3.99.76-.97 1.47-1.98 2.17-2.99.62-.89 1.47-1.16 2.56-.89.08.02.17 0 .25 0 .05.08.1.17.15.25.05.24.26.43.24.7-.03.38-.12.65-.63.54.32-.24.56-.51.15-.84-.33-.26-.71-.41-1.05.02-.35 0-.58.14-.63.47v.11c-.3.03-.38.22-.38.47-.15.02-.24.09-.25.24l-.77 1.04a.41.41 0 0 0-.37.24c-.13.09-.13.21-.14.34-.15.02-.26.09-.35.21-.64.81-1.33 1.58-1.9 2.43-.26.39-.58.73-.83 1.12-.1.15-.47.51.16.55-.52.47-.71.47-.89-.02"></path><path fill="#46993B" d="M18.215 7.91c.45.57.23 1.19-.56 1.64-.65.37-1.36.31-2.06.23-.29-.03-.57-.14-.87-.13.07-.22.33-.21.48-.34.34-.07.6-.23.67-.56.82-.18 1.49-.72 2.33-.84z"></path><path fill="#F36A31" d="M13.065 11.3c.51.12.6-.16.63-.54.02-.27-.19-.46-.24-.7.09.01.19.03.28.04l.18.06c.06.15-.03.34.14.47v.1c-.24.59-.51 1.16-1.1 1.54-.15.1-.16.26-.16.42-.08.02-.19.03-.23.08-.61.69-1.4 1.21-2.05 1.87-.17.17-.44.32-.38.62-.08.04-.16.08-.24.13-.37.29-.81.53-1.08.89-.24.31-.48.4-.83.39.17-.23.34-.47.51-.7.04-.04.08-.08.13-.12.15 0 .24-.08.26-.22.31-.04.39-.22.38-.47v-.1c.74-.44 1.34-1.03 1.89-1.64.51-.21.92-.49 1.02-1.05.42-.21.61-.6.89-.92v-.15"></path><path fill="#D16E43" d="M14.285 10.85c.41.59.37 1.12-.19 1.67-.75.73-1.52 1.46-2.31 2.15-1.1.96-2.17 1.94-3.41 2.75-.4.26-.83.45-1.27.63-.05-.07-.1-.15-.15-.22.84-.27 1.52-.73 2.01-1.41.41.18.47-.21.68-.36.14-.07.23-.17.24-.33.47-.06.75-.32.89-.72.28-.04.52-.19.68-.38.63-.72 1.39-1.33 2.1-1.99.28-.26.53-.54.65-.9.2-.28.11-.58.05-.88l.03-.03z"></path><path fill="#23582B" d="M13.915 10.16a3 3 0 0 1-.17-.06c-.29-.21.13-.33.08-.52.43-.22 1.01-.32 1.18-.77.13-.32.3-.46.6-.56.3-.32.71-.45 1.13-.59.37-.03.66-.15.62-.57l.15-.03c.06.18.17.25.37.16.04.26.77.23.34.69-.84.12-1.51.66-2.33.84-.38.02-.58.24-.67.56-.14.13-.41.12-.48.34-.27.17-.54.34-.82.52z"></path><path fill="#3C9F39" d="M16.725 7.66c-.42.13-.83.27-1.13.59-.09-.45.29-.65.56-.91.28-.27.1-.51-.06-.73-.19-.28-.43-.14-.65 0-.31.2-.61.41-.91.61.03-.21-.05-.43.15-.6.12 0 .23-.03.27-.16.01-.03.03-.05.06-.07.02-.04.03-.07.05-.11.09-.06.13-.14.13-.24.07-.05.14-.1.2-.15.48.35 1.14.31 1.72-.09.17.32.25.72.77.73 0 .25-.34.3-.39.52-.05.01-.1.02-.15.04-.33.08-.53.27-.62.57"></path><path fill="#21622B" d="M14.695 6.62c-.2.17-.13.4-.15.6-.02.07-.05.14-.07.22-.24.34-.12.71-.13 1.07-.03.16-.13.27-.28.35-.16-.01-.3.25-.47.02-.1-.15-.2-.31-.3-.46 0-.3.14-.57.08-.9-.06-.34.1-.73.31-1.04.17-.25.41.11.63 0 .09-.04.2-.06.3-.09.04 0 .07 0 .1.02 0 .07 0 .15-.01.22z"></path><path fill="#2D8E3C" d="M14.615 6.38c-.1.03-.21.04-.3.09-.22.11-.46-.26-.63 0-.21.31-.38.7-.31 1.04.06.33-.07.6-.08.9-.26-.19-.57-.37-.19-.71.18-.16-.04-.22-.11-.32-.12-.18-.44-.26-.29-.55.7.3.65-.36.76-.6.27-.54-.45.01-.47-.29.12-.36.44-.46.78-.44.31.02.49.24.49.52 0 .24.19.27.35.36"></path><path fill="#78B63C" d="M17.895 6.53c-.52 0-.6-.41-.77-.73.28.13.5-.12.78-.1.51.04.8.18.7.7-.24.04-.48.08-.71.12z"></path><path fill="#DE743F" d="M6.965 17.85c.05.07.1.15.15.22-.21.11-.42.24-.64.33-.25.1-.53.19-.74-.05-.19-.23-.1-.46.08-.67.18.49.37.49.89.02h.23l.03.16z"></path><path fill="#2D8E3C" d="m17.895 6.53.71-.12c-.02.44-.37.63-.73.81-.2.09-.31.01-.37-.16.05-.23.39-.27.39-.52z"></path><path fill="#78B63C" d="M17.125 5.81c-.58.4-1.23.44-1.72.09.58.09 1.13-.29 1.72-.09"></path><path fill="#3C9F39" d="M12.995 5.94c.02.31.74-.25.47.29-.12.24-.07.89-.76.6-.03-.33.49-.51.29-.89"></path><path fill="#007A34" d="M13.585 8.87c.17.23.32-.03.47-.02-.08.24-.16.48-.25.73.06.18-.37.31-.07.52-.1-.01-.19-.03-.28-.04-.05-.08-.1-.17-.15-.25.19-.29.29-.6.28-.93z"></path><path fill="#78B63C" d="M14.695 6.62c0-.07 0-.14.01-.22l.26.06c-.04.12-.15.15-.27.16"></path><path fill="#D16E43" d="M14.055 10.73v-.1c.13.03.19.12.23.23l-.03.03c-.07-.05-.14-.1-.2-.15z"></path><path fill="#78B63C" d="M15.205 6.04c0 .1-.03.18-.13.23 0-.1.03-.18.13-.23M15.075 6.28s-.03.07-.05.11c.02-.04.03-.07.05-.11"></path><path fill="#FA954D" d="M8.605 15.83s-.08.08-.13.12c-.63-.19-.41-.46-.11-.77.52-.54 1.09-1.04 1.25-1.8 0-.13.01-.26.14-.34.18 0 .35-.02.37-.24l.77-1.04c.16-.01.24-.09.25-.24.29-.04.34-.25.38-.47v-.11c.29-.07.54-.17.63-.47.23.05.58-.13.67.14.1.29-.1.54-.44.67-.12.05-.22.18-.3.29-.62.79-1.27 1.56-1.91 2.33-.31.38-.81.63-.93 1.13v.1c-.29.05-.34.25-.38.47-.16 0-.24.08-.26.22z"></path><path fill="#F88843" d="M9.615 13.38c-.15.75-.73 1.26-1.25 1.8-.3.31-.53.58.11.77-.17.23-.34.47-.51.7l-.38.26c-.04.03-.08.07-.12.1-.24 0-.37.12-.39.35-.05.11-.11.22-.16.34h-.23c-.62-.04-.26-.4-.16-.55.26-.38.57-.73.83-1.12.57-.85 1.26-1.62 1.9-2.43.09-.12.2-.2.35-.21zM9.255 15.03c.12-.51.62-.76.93-1.13.64-.77 1.29-1.54 1.91-2.33.09-.11.18-.24.3-.29.34-.13.53-.38.44-.67-.09-.27-.44-.09-.67-.14.34-.42.72-.28 1.05-.02.42.33.17.6-.15.84v.12c-.6.06-.85.41-.89.92-.49.23-.78.61-1.02 1.05-.56.62-1.15 1.21-1.89 1.65z"></path><path fill="#F88843" d="M12.165 10.47c-.09.29-.35.4-.63.47.06-.33.28-.47.63-.47M11.525 11.05c-.03.22-.09.43-.38.47 0-.25.07-.43.38-.47M10.125 12.8c-.02.22-.19.24-.37.24.07-.15.2-.22.37-.24M11.145 11.52c-.01.14-.1.22-.25.24.01-.14.1-.22.25-.24"></path><path fill="#21622B" d="M15.205 9.31c.09-.32.29-.54.67-.56-.08.34-.33.49-.67.56"></path><path fill="#DF582B" d="M7.475 17.01s.08-.07.12-.1c.34.18.37-.03.38-.26.36.01.6-.08.83-.38.27-.35.72-.6 1.08-.89v.37c-.01.15-.1.25-.24.33-.32-.03-.52.12-.68.36-.49.68-1.17 1.14-2.01 1.41l-.03-.16c.05-.11.11-.22.16-.34.23-.02.36-.14.39-.35zM10.125 15.25c-.06-.3.21-.45.38-.62.65-.66 1.44-1.18 2.05-1.87.04-.05.15-.05.23-.08h.01c-.21.44-.57.76-.89 1.11-.37.41-1.04.6-1.14 1.23-.21.07-.43.15-.65.23zM14.055 10.73l.21.15c.06.3.15.6-.05.88-.24-.03-.36.12-.51.26-.27.25-.48.58-.89.68h-.01c0-.17.01-.34.16-.43.59-.38.86-.95 1.1-1.54z"></path><path fill="#F67B35" d="M11.145 13.39c.23-.43.53-.82 1.02-1.05-.09.55-.51.84-1.02 1.05M12.165 12.34c.04-.52.28-.87.89-.92-.28.32-.47.72-.89.92"></path><path fill="#C84F28" d="M10.125 15.25c.21-.08.43-.15.65-.23-.14.4-.42.66-.89.72v-.37c.08-.04.16-.08.24-.13z"></path><path fill="#F88843" d="M8.875 15.61c.03-.22.09-.42.38-.47.01.25-.07.43-.38.47M8.605 15.83c.02-.14.11-.22.26-.22-.02.14-.11.21-.26.22"></path><path fill="#C84F28" d="M12.805 12.7c.41-.1.62-.43.89-.68.15-.14.27-.29.51-.26-.12.36-.37.63-.65.9-.71.66-1.47 1.26-2.1 1.99-.17.19-.4.34-.68.38.1-.62.77-.81 1.14-1.23.32-.35.68-.67.89-1.1M8.975 16.43c.15-.24.35-.4.68-.36-.2.15-.26.54-.68.36"></path><path fill="#2D8E3C" d="M13.815 9.58c.08-.24.16-.48.25-.73.14-.08.24-.19.28-.34.56-.45 1.12-.9 1.53-1.63-.6.15-.9.55-1.4.56.02-.07.05-.14.07-.21.3-.21.6-.41.91-.61.21-.14.46-.28.65 0 .15.22.33.46.06.73-.27.26-.65.46-.56.91-.3.1-.47.25-.6.56-.18.45-.75.55-1.18.77zM16.725 7.66c.09-.29.3-.49.62-.57.04.42-.25.53-.62.57"></path><path fill="#007A34" d="M14.475 7.44c.49 0 .8-.4 1.4-.56-.41.72-.97 1.18-1.53 1.63 0-.36-.11-.74.13-1.07"></path><path fill="#F67B35" d="M7.475 17.01c-.03.21-.16.33-.39.35.02-.22.14-.34.39-.35"></path><path fill="#F36A31" d="M7.975 16.65c-.01.23-.04.44-.38.26z"></path></g></g></svg>