<svg xmlns="http://www.w3.org/2000/svg" fill="none" viewBox="0 0 25 25" width="48" height="48" class="form-header-menus__icon"><g clip-path="url(#clip0_7803_4028)"><path fill="#fff" d="M12.875 24.27c6.627 0 12-5.373 12-12s-5.373-12-12-12-12 5.373-12 12 5.373 12 12 12"></path><mask id="a" width="14" height="14" x="6" y="5" maskUnits="userSpaceOnUse" style="mask-type:luminance;"><path fill="#fff" d="M19.375 5.77h-13v13h13z"></path></mask><g mask="url(#a)"><path fill="#5F2814" d="M9.925 11.23c-.11-.14-.08-.27.03-.4.24.04.49.21.71-.08.07-.09.2.02.21.1.04.37.32.62.54.88.21.24.15.66.56.74v.23c0 .11.06.19.16.24v.15c.16.78.66 1.39 1.06 2.05.2.33.63.55.75.88.15.41.57.59.63.98.22 0 .05-.33.21-.2.17.14.35.38.29.63-.12.44-.53.61-.98.45-.22-.08-.42-.17-.66-.14l-.08-.08c-.07-.23-.29-.25-.49-.31-.05-.05-.11-.1-.16-.16-.06-.35-.27-.59-.57-.78-.03-.05-.05-.1-.08-.16-.01-.08 0-.16-.04-.23-.29-.61-.65-1.2-.72-1.9 0-.05-.09-.09-.13-.13v-.15c-.08-.42-.14-.84-.26-1.24a2.2 2.2 0 0 0-.69-1.02c-.03 0-.04-.03-.03-.05.01-.15-.07-.23-.22-.26v-.02s-.02-.03-.03-.05z"></path><path fill="#CC763E" d="M19.325 15.58c.08.48.09.95-.16 1.39-.69-.17-1.41-.21-2.04-.65-.42-.3-.93-.51-1.4-.76-.24-.13-.44-.28-.6-.54-.17-.28-.29-.62-.56-.81a1.6 1.6 0 0 1-.43-.44c-.28-.41-.5-.87-.82-1.25-.26-.31-.22-.74-.47-1.01-.25-.28-.34-.57-.39-.9.07-.11.15-.18.28-.08.13.09.21.05.29-.07.15 0 .28.04.41.1.04.1.11.12.21.09.04 0 .08.01.13.02-.02.06-.03.13-.11.14-.14.02-.35-.14-.42.08-.07.2.14.31.25.45.4.55.93 1.02 1.06 1.73.02.13.11.24.25.29.15.06.16.18.22.29.14.28.09.6.3.87.3.37.71.54 1.15.65.26.06.49.12.64.4.12.22.46.4.67.35.35-.08.62.06.91.13.28.07.41-.03.52-.23.04-.07 0-.19.12-.23z"></path><path fill="#DC8F4C" d="M19.325 15.58c-.11.04-.08.15-.12.23-.11.2-.24.3-.52.23-.29-.07-.56-.22-.91-.13-.21.05-.55-.14-.67-.35-.15-.28-.38-.33-.64-.4-.45-.11-.85-.28-1.15-.65-.21-.26-.16-.59-.3-.87-.06-.11-.07-.23-.22-.29a.43.43 0 0 1-.25-.29c-.13-.7-.66-1.18-1.06-1.73-.1-.14-.32-.25-.25-.45.08-.22.28-.06.42-.08.08-.01.09-.08.11-.14.75.11 1.45.38 2.12.7-.18.3-.35-.01-.52-.02-.16 0-.31-.08-.45.06-.15.15-.04.28.01.43.15.4.6.6.64 1.12.03.33.3.72.46 1.07.18.39.54.58.79.71.42.21.77.81 1.42.48.08-.04.14.05.22.08.37.14.62-.03.57-.41-.01-.11-.05-.21.1-.24 0 .32.27.6.19.94z"></path><path fill="#E4A868" d="M19.125 14.64c-.15.03-.12.13-.1.24.05.38-.19.55-.57.41-.07-.03-.14-.12-.22-.08-.64.33-.99-.27-1.42-.48-.25-.13-.61-.32-.79-.71-.16-.35-.43-.75-.46-1.07-.04-.52-.49-.72-.64-1.12-.05-.15-.16-.28-.01-.43.14-.14.29-.06.45-.06.17 0 .34.31.52.02 1.54.5 2.56 1.51 3.11 2.96.04.11.15.19.12.32zm-.32-.26c0-.11-.07-.19-.1-.29-.19-.57-.75-.87-1.05-1.36-.35-.58-.98-.83-1.6-1.04-.08-.03-.2-.06-.27-.02-.11.06 0 .16.01.24.04.41.33.72.41 1.11.08.36.18.72.61.87.14.05.17.19.24.3.19.32.57.44.9.28.16-.07.17 0 .22.11.09.19.27.12.42.09.15-.04.22-.15.2-.29z"></path><path fill="#76361B" d="M13.445 17.74c.24-.03.45.06.66.14.45.16.86-.01.98-.45.07-.25-.12-.49-.29-.63-.16-.14 0 .19-.21.2-.06-.39-.48-.57-.63-.98-.12-.34-.55-.56-.75-.88-.4-.66-.91-1.28-1.06-2.06.32 0 .29.41.56.47.03.31.11.6.27.87.23.4.59.72.82 1.12.09.16.27.19.46.18.15.3.41.5.74.62.19.1.38.21.57.31.04.38.39.37.65.47h.08c.05.26.3.38.43.6.17.3.14.42-.2.49-.22.05-.45.07-.65.19-.09.06-.17.02-.26-.04-.32-.25-.51-.18-.62.24-.44-.02-.82-.24-1.24-.3-.03 0-.04 0-.06-.03-.08-.18-.16-.35-.25-.53"></path><path fill="#D2C2B2" d="M8.715 5.9c.43-.22.77-.15.98.19-.29-.1-.34-.05-.35.27-.02.65.24 1.3-.04 1.95a.42.42 0 0 0 .11.47c.29.3.48.68.81.96.18.15.37.35.58.14.22-.22-.07-.37-.21-.49-.47-.41-.7-.91-.56-1.51.15-.65.04-1.24-.33-1.8.31.05.38.32.46.54.14.36.19.76.08 1.11-.21.68.06 1.17.55 1.61.12.11.19.29.39.32-.07.32-.39.36-.63.5l-.2-.03c-.36-.36-.71-.73-1.07-1.09-.11-.11-.25-.08-.38-.05-.41.11-.75-.03-1.1-.23-.37-.21-.44-.61-.74-.84-.29-.22-.2-.34.05-.47.08-.04.18-.05.23-.15.13-.16.31-.12.49-.12.06.21.3.31.34.53-.15.03-.35-.02-.4.19-.06.24.06.43.24.58.19.15.4.38.68.22.3-.18-.03-.38-.04-.57.24.02.34-.08.33-.31-.01-.38 0-.77 0-1.15 0-.09 0-.23-.08-.24-.41-.08-.19-.32-.17-.51z"></path><path fill="#B8602E" d="M12.465 10.6c.04.33.13.63.39.9.25.27.21.7.47 1.01.32.38.54.83.82 1.25.11.17.25.31.43.44.27.19.39.53.56.81.16.26.36.41.6.54.47.26.98.47 1.4.76.63.44 1.35.48 2.04.65-.13.17-.15.41-.34.54-.36-.43-.84-.57-1.39-.54h-.16c-.14-.23-.37-.36-.59-.48-.48-.26-.96-.51-1.4-.83-.31-.22-.45-.58-.73-.81-.4-.33-.65-.78-1-1.14-.25-.26-.18-.61-.37-.86-.55-.71-.86-1.55-1.28-2.33.19.03.38.05.57.08z"></path><path fill="#954D2A" d="M17.265 16.97h.16c.02.17.16.2.31.25.18.06.37.17.32.38-.05.19.03.35.03.52-1.03.79-3.18.88-4.34.18.43.05.81.28 1.24.3.8.17 1.56.04 2.34-.2-.11-.15-.47-.18-.1-.4.2-.11.07-.38-.09-.44-.3-.12-.53-.36-.85-.43h-.08c-.11-.3-.38-.38-.65-.47-.19-.1-.38-.21-.57-.31-.06-.23-.35-.35-.32-.62.2 0 .23.2.37.28.58.32 1.17.64 1.75.97.17.1.32.11.48 0z"></path><path fill="#9C8D80" d="m10.345 10.14.2.03c-.02.05-.04.11-.06.17l-.54.42c-.22-.38-.55-.66-.84-.99-.19-.22-.44-.19-.71-.15-1 .15-1.76-.31-1.99-1.18-.05-.19-.08-.38.02-.57.22.24.42.51.67.72.38.31.68.84 1.26.73.55-.1.85.15 1.19.46.2.18.43.43.78.34z"></path><path fill="#B5A798" d="M10.345 10.14c-.35.09-.58-.16-.78-.34-.35-.31-.64-.56-1.19-.46-.58.11-.88-.42-1.26-.73-.25-.21-.45-.48-.67-.72.15-.4.47-.55.89-.57-.04.09-.15.1-.23.15-.25.14-.34.25-.05.48.3.23.37.63.74.84.35.2.69.34 1.1.23.13-.03.27-.06.38.05.36.36.71.72 1.07 1.09zM8.165 7.71c-.04-.22-.28-.32-.34-.52.24-.15.25-.41.34-.63.1-.28.22-.55.56-.65-.03.19-.24.43.17.51.08.01.08.15.08.24v1.15c0 .23-.09.33-.33.31-.08-.08-.16-.15-.24-.23 0-.09-.06-.15-.16-.16-.02 0-.05 0-.07-.01z"></path><path fill="#76361B" d="M10.205 11.61c.33.28.57.62.69 1.02s.18.83.26 1.24h-.25c-.02-.05-.03-.11-.05-.17.08-.07.04-.12-.03-.16-.23-.64-.31-1.32-.61-1.94z"></path><path fill="#A9562B" d="M18.085 18.12c0-.17-.08-.33-.03-.52.05-.2-.13-.32-.32-.38-.15-.05-.29-.07-.31-.25.55-.03 1.03.11 1.39.54-.24.21-.38.53-.74.61z"></path><path fill="#76361B" d="m9.955 10.76.54-.42c.04.03.07.07.11.1.06.18.32.13.38.31.13.39.44.66.67.99.16.22.32.45.32.73-.42-.08-.36-.5-.56-.73-.22-.25-.5-.5-.54-.88 0-.07-.14-.19-.21-.1-.22.29-.47.12-.71.08v-.08"></path><path fill="#954D2A" d="M10.595 10.44s-.07-.07-.11-.1c.02-.05.04-.11.06-.17.24-.13.56-.17.63-.5.03 0 .05-.01.07-.02.09.09.08.2.08.31.03.33.32.59.24.94-.27-.26-.5-.59-.97-.47zM13.445 17.74c.08.18.17.35.25.53-.65-.27-1.12-.73-1.47-1.3.2.01.33.15.49.23.05.05.11.1.16.16.08.22.26.31.49.31l.08.08z"></path><path fill="#76361B" d="M11.155 14.01s.13.08.13.13c.08.69.43 1.28.72 1.9.03.07.03.15.04.23-.17-.09-.26-.24-.35-.4-.23-.4-.27-.88-.58-1.24-.01-.05-.03-.1-.04-.15.13-.14-.11-.33.07-.47z"></path><path fill="#C27142" d="M12.465 10.6c-.19-.03-.38-.05-.57-.08-.14-.06-.17-.18-.17-.31l.17-.23c.36.2.75.33 1.14.47-.07.12-.16.16-.29.07-.13-.1-.21-.03-.28.08"></path><path fill="#954D2A" d="M11.125 14.63c.31.36.36.84.58 1.24.09.16.18.31.35.4.03.05.05.1.08.15v.4c-.46-.68-.81-1.41-1.01-2.2z"></path><path fill="#76361B" d="M12.135 16.83v-.4c.3.18.51.43.57.78-.16-.08-.29-.22-.49-.23-.03-.05-.06-.09-.09-.14z"></path><path fill="#C27142" d="M11.335 9.97c0-.11 0-.22-.08-.31.31-.14.36-.12.56.24-.08.05-.16.11-.25.16l-.24-.09z"></path><path fill="#954D2A" d="M11.155 14.01c-.18.13.06.33-.07.47-.11-.19-.17-.4-.18-.61h.25v.15z"></path><path fill="#B8602E" d="M11.575 10.06c.08-.05.16-.11.25-.16.03.03.05.06.07.08l-.17.23c-.05-.05-.1-.1-.16-.15z"></path><path fill="#76361B" d="M9.955 11.29c.15.03.23.11.22.26a.4.4 0 0 1-.22-.26"></path><path fill="#954D2A" d="M10.825 13.54c.08.04.11.09.03.16z"></path><path fill="#DC8F4C" d="M13.655 10.64q-.15.045-.21-.09c.09-.02.16.02.21.09"></path><path fill="#76361B" d="M9.925 11.23s.02.03.03.04h-.03z"></path><path fill="#863F1F" d="M10.595 10.44c.47-.12.7.21.97.47l.24.24c-.03.26.15.46.26.67.28.56.67 1.07.64 1.73-.27-.06-.24-.46-.56-.47v-.15c.12-.19-.04-.2-.16-.24v-.23c0-.28-.17-.51-.32-.73-.23-.33-.54-.6-.67-.99-.06-.18-.33-.12-.39-.31z"></path><path fill="#76361B" d="M13.365 17.67c-.23 0-.4-.09-.49-.31.2.06.42.08.49.31M11.985 12.69c.12.04.29.05.16.24-.11-.05-.16-.12-.16-.24"></path><path fill="#EFC28E" d="M18.815 14.39c.01.15-.05.26-.2.29s-.33.1-.42-.09c-.05-.11-.07-.18-.22-.11a.69.69 0 0 1-.9-.28c-.07-.11-.1-.25-.24-.3-.43-.15-.53-.51-.61-.87-.08-.39-.38-.71-.41-1.11 0-.08-.12-.18-.01-.24.06-.04.19 0 .27.02.63.22 1.26.46 1.6 1.04.3.49.86.8 1.05 1.36.03.1.11.18.1.29z"></path><path fill="#863F1F" d="M16.295 17.12c.32.08.55.32.85.43.16.06.29.33.09.44-.38.22-.01.25.1.4-.78.24-1.54.37-2.34.2.11-.42.3-.49.62-.24.08.06.16.1.26.04.2-.12.43-.15.65-.19.34-.07.38-.19.2-.49-.12-.21-.37-.34-.43-.6zM14.255 15.73c-.18.01-.37-.02-.46-.18-.23-.41-.59-.72-.82-1.12-.16-.27-.23-.57-.27-.87.13.05.27.1.4.15.14.23.28.46.41.7-.18.29.04.48.22.62.25.19.39.43.51.7z"></path><path fill="#863F1F" d="M14.665 15.72c-.03.27.26.39.32.62-.33-.12-.58-.32-.74-.62.14-.03.27-.06.41-.08v.08zM15.565 16.65c.27.09.55.17.65.47-.26-.1-.61-.09-.65-.47"></path><path fill="#E5D8CA" d="M9.705 6.09c.37.56.48 1.15.33 1.8-.14.6.09 1.1.56 1.51.14.12.43.27.21.49-.21.21-.4 0-.58-.14-.33-.28-.52-.66-.81-.96-.12-.13-.18-.32-.11-.47.28-.65.03-1.3.04-1.95 0-.33.06-.38.35-.28zM8.165 7.71s.05 0 .07.01c0 .1.06.15.16.16.08.08.16.15.24.23.01.19.34.4.04.57-.27.16-.48-.07-.68-.22-.19-.14-.31-.33-.24-.58.05-.2.25-.16.4-.18z"></path><path fill="#A9562B" d="M14.665 15.72v-.08c-.23-.49-.66-.83-1.02-1.23-.02-.02-.08 0-.12-.01-.14-.23-.28-.46-.41-.7-.03-.66-.55-1.14-.73-1.74-.1-.33-.31-.59-.57-.82l-.24-.24c.09-.35-.21-.62-.24-.94l.24.09c.05.05.1.1.16.15 0 .13.03.25.17.31.42.78.73 1.61 1.28 2.33.19.25.12.59.37.86.35.36.6.81 1 1.14.28.23.42.58.73.81.44.32.92.58 1.4.83.23.12.46.25.59.48-.16.11-.32.1-.48 0-.58-.33-1.17-.65-1.75-.97-.14-.08-.17-.28-.37-.28z"></path><path fill="#D2C2B2" d="M8.395 7.88c-.1-.01-.15-.06-.16-.16.1 0 .15.06.16.16"></path><path fill="#954D2A" d="M11.815 11.14c.26.23.48.49.57.82.18.61.7 1.08.73 1.74-.13-.05-.27-.11-.4-.16.02-.66-.36-1.18-.64-1.73-.11-.21-.28-.41-.26-.67M13.525 14.4s.1 0 .12.01c.36.4.79.74 1.02 1.23-.14.03-.27.05-.41.08a1.6 1.6 0 0 0-.51-.7c-.18-.14-.4-.33-.22-.62"></path></g></g></svg>