<svg xmlns="http://www.w3.org/2000/svg" fill="none" viewBox="0 0 25 25" width="48" height="48" class="form-header-menus__icon"><g clip-path="url(#clip0_7803_1482)"><path fill="#fff" d="M12.375 24.27c6.627 0 12-5.373 12-12s-5.373-12-12-12-12 5.373-12 12 5.373 12 12 12"></path><mask id="a" width="14" height="14" x="5" y="5" maskUnits="userSpaceOnUse" style="mask-type:luminance;"><path fill="#fff" d="M18.875 5.77h-13v13h13z"></path></mask><g mask="url(#a)"><path fill="#83361D" d="M10.735 16.63a.7.7 0 0 1-.31-.14c-.01-.06-.05-.08-.11-.06-.69-.39-1.2-.97-1.67-1.6.01-.08 0-.13-.1-.13l-.03-.06c.03-.22 0-.41-.11-.6-.19-.3-.35-.62-.55-.92-.11-.16-.23-.33-.44-.39-.01-.04-.02-.09-.04-.13.01-.13 0-.25-.13-.32-.29-.84-.1-1.6.31-2.34l.15-.24c.44.07.55.02.5.64-.02.35-.02.7.15 1.02.32.62.85.97 1.52 1.1.32.07.55.26.74.5.15.18-.04.38-.06.57v.23c-.05.14-.05.29-.06.42-.04.31.24.5.17.79-.11.54-.14 1.07.21 1.54.02.03.04.07 0 .11-.05.01-.1.02-.14.03z"></path><path fill="#C34A4A" d="M15.935 13.93c-.11.18-.22.36-.34.54-.09.07-.17.1-.27 0-.18-.17-.38-.32-.57-.48.1 0 .19 0 .16-.16-.04-.23-.67-.57-.88-.46-.07.04-.05.11-.06.17-.03.05-.07.06-.12.05-.01-.08 0-.19-.14-.14-.34.14-.63.32-.84.64-.32.48-.05.93.04 1.39.03.16.19.2.36.12.15-.07.29-.18.47-.15.14.04.22.15.29.27-.01.05-.03.1-.05.14-.11-.03-.15.01-.14.12-.16-.01-.31 0-.32.21-.02.04-.05.06-.09.03-.1 0-.21 0-.31.03-.43.14-.87.32-1.17-.22-.01-.02-.05-.03-.08-.05-.28-.21-.42-.49-.37-.85.04-.28-.03-.56.16-.84.11-.15.14-.44-.05-.64.63-.91 1.46-1.58 2.5-1.97.07 0 .14.01.18-.06.08 0 .18.03.24-.06.04-.04.09-.05.14-.04.26.07.51.03.77.02.06.02.11.04.17.06-.05.28-.24.07-.35.09-.59.1-1.15.28-1.66.57-.29.16-.55.38-.72.68-.06.1-.09.21 0 .29.08.08.18.04.26-.02.23-.17.51-.2.76-.28.19-.06.38-.26.62-.12.12.08.26.09.4.08.23-.01.4.05.4.32 0 .12.08.2.18.23.12.04.23-.01.31-.11.07-.09.12-.19.15-.31.1-.38.02-.76.07-1.14.32.34.25.75.2 1.16-.03.31-.25.55-.29.86z"></path><path fill="#A7A198" d="M18.785 16.42c-.08.3-.31.48-.57.58-.46.18-.83.43-.98.93-.01.04-.06.06-.08.09-.08-.06-.07-.15-.07-.23.01-.28-.13-.23-.29-.14-.17.1-.23.26-.28.44-.07.29-.29.45-.54.58-.3-.04-.6-.07-.81-.33q.075 0 .15.03c.19.06.36-.07.44-.16.08-.08-.13-.19-.23-.28-.13-.12-.29-.2-.39-.36-.19-.29-.22-.6-.22-.93 0-.52-.16-.95-.59-1.32-.41-.37-.95-.68-1.05-1.32.02-.07.07-.11.13-.14l.05-.05v-.02s.09 0 .13-.01c-.1.23 0 .4.17.54.08.06.15.15.23.22.58.5 1.16 1 1.34 1.8.03.12.11.21.23.24.19.03.32.12.42.29s.25.17.4.03c.09-.09.17-.19.18-.33.02-.16.1-.22.25-.21.18 0 .36 0 .54.02.48.03.95.15 1.43.04z"></path><path fill="#E0D6C9" d="M13.855 13.6c.05.02.1 0 .12-.05.04 0 .09 0 .13-.01h.06c.02.02.05.03.07.05 0 .02.02.03.04.03.16.13.32.25.48.38.19.16.39.31.57.48.1.1.18.07.27 0 .18.4.48.51 1.07.4.27-.05.53-.1.81-.11.67-.03 1.08.3 1.33.89-.16.17.05.45-.14.59-.21.15-.42-.06-.63-.09-.48-.07-.99-.04-1.44-.28-.17-.09-.29-.09-.45.04-.28.23-.56.14-.72-.18-.32-.65-.9-1.08-1.37-1.6-.13-.14-.26-.26-.29-.46v-.04c.03-.01.07-.03.1-.04z"></path><path fill="#F89C5C" d="M10.995 7.43c.4-.22.82-.14 1.22-.05.69.15 1.24.58 1.76 1.02.83.7 1.51 1.54 2.08 2.46.18.3.34.61.39.97v.15c-.14-.03-.19-.14-.19-.27a.33.33 0 0 0-.11-.28c-.59-.51-1.19-.76-1.98-.39-.3.14-.61.28-.89.46-.23.15-.57.14-.69.45-.21.03-.34.2-.5.31-.15 0-.14-.09-.08-.19.04-.06.11-.11.02-.19.05-.11.16-.13.25-.2.19-.1.3-.28.46-.42.25-.22.51-.44.87-.4.05 0 .1 0 .12-.06h.12c.14 0 .27-.03.38-.12h.12q.39-.075.78-.06c.06 0 .13 0 .16-.08.02-.07-.02-.13-.07-.16-.11-.08-.23-.15-.34-.22-.63-.41-1.13-.97-1.7-1.45-.33-.28-.72-.52-.95-.86-.25-.38-.53-.45-.92-.39-.1 0-.21-.01-.31-.02z"></path><path fill="#9B3B1D" d="M10.565 13.62v-.1c.01-.19.2-.38.06-.57-.19-.24-.42-.43-.74-.5-.67-.14-1.2-.48-1.52-1.1-.16-.32-.17-.67-.15-1.02.04-.62-.06-.57-.5-.64.08-.19.28-.32.33-.54.23-.15.4-.35.56-.56l.12-.03c.13.15.18.33.12.5-.2.54.06 1.01.3 1.44.39.7 1.08 1.13 1.77 1.47.34.16.47.28.36.62-.09.13-.17.26-.26.39q-.12.045-.12.18l-.06.21c-.07.1-.09.24-.25.25z"></path><path fill="#D36129" d="M12.265 11.7c-.08.06-.2.09-.25.19-.05.02-.09.04-.14.06.03-.35-.1-.57-.46-.63-.04 0-.1-.02-.11-.05-.16-.32-.51-.46-.68-.78-.18-.34-.46-.6-.77-.82-.45-.33-.49-.53-.41-1.07.04-.25.25-.42.21-.68v-.05c.17-.03.33-.1.47-.2.08-.03.17-.05.25-.08.23.07.13.16.03.29-.39.48-.35.64.14 1.01.35.26.73.49 1 .85.23.31.41.65.68.94.37.38.35.4.07.85-.03.05-.03.12-.04.18z"></path><path fill="#EC7A37" d="M12.265 11.7c.01-.06.01-.13.04-.18.27-.45.29-.46-.07-.85-.27-.28-.45-.63-.68-.94-.28-.36-.65-.59-1-.85-.49-.37-.53-.53-.14-1.01.1-.12.2-.21-.03-.29.07-.09.19-.09.29-.14.05.03.09.03.13-.02.07 0 .13 0 .2.01.1 0 .21.01.31.02.03.17-.1.24-.19.34-.13.16-.17.33.03.46.51.3.85.77 1.21 1.22.14.18.3.41.5.47.4.13.79.35 1.25.31.35-.03.42.13.25.43h-.12c-.16-.05-.3-.05-.38.12h-.12c-.1-.1-.11-.02-.12.06-.37-.03-.62.18-.87.4-.15.14-.27.32-.46.42z"></path><path fill="#E0D6C9" d="M9.665 7.86v.05c-.01 0-.02 0-.03.02-.03-.04-.07-.06-.07.02-.27.14-.48.37-.77.45 0-.11-.06-.18-.14-.24-.55-.4-.46-.96-.4-1.52.04-.39.27-.63.53-.87.66-.01 1.17.45 1.19 1.09-.21.3-.33.62-.32 1zM16.255 11.71c0 .13.05.24.19.27 0 .12 0 .24.01.36s-.05.25.04.36c-.06.47-.29.86-.57 1.22.04-.3.26-.55.29-.86.04-.41.12-.82-.2-1.16-.07-.18-.24-.22-.4-.29-.06-.02-.11-.04-.17-.06-.25-.12-.51-.08-.77-.02-.05-.01-.1 0-.14.04-.08 0-.18-.03-.24.06-.06.01-.14 0-.18.07-1.04.39-1.86 1.06-2.5 1.97-.42.52-.72 1.09-.76 1.77-.04.75.35 1.2 1.1 1.21.53.01 1.04-.11 1.49-.43.04.03.07 0 .09-.03.13-.05.25-.1.32-.22.08 0 .15 0 .14-.12.05.03.09 0 .13-.02.07 0 .11.05.11.12-.31.1-.57.31-.86.45-.52.26-1.06.44-1.63.5-.12.01-.28.06-.38-.08-.06-.16-.21-.19-.34-.24-.05-.03-.11-.07-.16 0 0 0 .02-.08 0-.11-.35-.48-.31-1.01-.21-1.55.09-.07.09-.18.13-.28.13-.35.31-.68.51-.99.27-.42.63-.77.96-1.14.16 0 .21-.17.33-.23.33-.17.63-.39.93-.6.16 0 .29-.11.44-.17.78-.28 1.57-.55 2.28.17z"></path><path fill="#B9B4A9" d="M13.755 13.68c.02.2.16.32.29.46.47.52 1.05.95 1.37 1.6.16.33.44.42.72.18.16-.14.28-.13.45-.04.45.24.96.21 1.44.28.21.03.42.24.63.09.19-.14-.02-.42.14-.59.1.26.12.51 0 .77-.48.1-.95-.01-1.43-.05-.18-.01-.36-.01-.53-.02-.15 0-.24.05-.25.21-.01.13-.09.23-.18.32-.14.14-.3.14-.4-.03a.55.55 0 0 0-.42-.29.29.29 0 0 1-.23-.24c-.18-.8-.77-1.29-1.34-1.8-.08-.07-.15-.15-.23-.22-.18-.14-.27-.31-.17-.54l.17-.11z"></path><path fill="#958D87" d="M14.235 15.97c0-.07-.04-.11-.11-.12-.03-.04-.06-.08-.08-.12-.07-.12-.14-.23-.29-.27-.19-.22-.37-.45-.6-.64-.29-.26-.23-.61.13-.81.1.63.64.95 1.05 1.32.42.38.58.81.59 1.32 0 .33.03.64.22.93.1.16.26.24.39.36.1.09.31.19.23.28s-.25.22-.44.16c-.05-.02-.1-.02-.15-.03-.38-.33-.59-.73-.49-1.25.08-.46 0-.86-.44-1.12zM8.605 8.6c-.17.21-.34.41-.56.56-.65.08-1.28.06-1.81-.41-.31-.28-.44-.74-.29-1.11.09-.23.24-.42.5-.48.03.16-.11.26-.13.41-.07.51.34 1.12 1.03.91.48-.15.86-.18 1.27.11z"></path><path fill="#A7A198" d="M8.605 8.6c-.4-.29-.79-.26-1.27-.11-.69.21-1.1-.4-1.03-.91.02-.15.17-.25.13-.41.7-.16 1.21-.58 1.59-1.17.04-.06.11-.1.18-.1-.1.35-.29.67-.32 1.04-.03.45-.09.48-.53.35-.05-.01-.1-.04-.14-.06-.13-.07-.24-.06-.32.09s-.28.27-.19.47c.11.21.31.31.55.29.15 0 .29-.02.44-.05.44-.1.8.14.89.57z"></path><path fill="#B9B4A9" d="M8.595 8.59c-.09-.42-.45-.66-.89-.57-.15.03-.29.04-.44.05-.25.01-.45-.08-.55-.29-.1-.2.11-.32.18-.47.07-.14.18-.16.32-.09.05.02.09.05.14.06.44.13.49.1.53-.35.03-.37.22-.69.32-1.04.17-.13.38-.12.58-.12-.26.24-.49.48-.53.87-.06.57-.15 1.12.4 1.52.08.06.14.13.14.24.01.07-.05.11-.08.17-.04 0-.08.01-.12.02M15.985 18.67c.24-.13.46-.29.54-.58.04-.17.11-.34.28-.44.16-.1.3-.14.29.14 0 .08-.01.17.07.23-.12.47-.45.67-.9.74-.1.01-.21.03-.27-.09z"></path><path fill="#AC3939" d="M7.415 12.73c.21.05.33.23.44.39.2.3.36.62.55.92a.8.8 0 0 1 .11.6c-.36-.33-.56-.78-.79-1.2-.13-.22-.28-.45-.32-.72z"></path><path fill="#B9B4A9" d="M9.665 7.86c-.01-.37.11-.7.32-1 .03.27 0 .53-.12.76.09.12.19-.03.27.04-.14.1-.3.17-.47.2"></path><path fill="#C77448" d="M11.025 16.6c.14.05.28.08.34.24-.21-.07-.48.03-.63-.21.05 0 .1-.02.14-.03.06.09.11.05.16 0z"></path><path fill="#AC3939" d="M7.245 12.28c.12.07.15.19.13.32-.11-.08-.12-.2-.13-.32"></path><path fill="#B9B4A9" d="M16.505 12.71c-.09-.11-.03-.24-.04-.36h.04v.37z"></path><path fill="#F89C5C" d="M16.495 12.34h-.04c0-.12 0-.24-.01-.36.02.01.03.03.05.04z"></path><path fill="#B9B4A9" d="M10.795 7.42c-.03.05-.08.06-.13.02.03-.05.07-.08.13-.02"></path><path fill="#AC3939" d="M8.545 14.7c.09 0 .11.05.09.13-.07-.02-.09-.06-.09-.13"></path><path fill="#C77448" d="M10.315 16.43c.06-.02.1 0 .11.06-.06.02-.1.01-.11-.06"></path><path fill="#B9B4A9" d="M16.495 12.03s-.03-.03-.05-.04v-.15c.06.06.05.12.04.19z"></path><path fill="#9B3B1D" d="M11.315 13.68q-.315.465-.51.99c-.04.1-.04.21-.13.28.07-.28-.21-.48-.17-.79.02-.13.01-.28.06-.42.09 0 .19.11.27-.04.14-.25.31-.18.48-.02"></path><path fill="#B94F24" d="M11.315 13.68c-.17-.16-.34-.23-.48.02-.08.15-.18.04-.27.04v-.13c.16 0 .18-.15.25-.25.16 0 .28-.06.38-.17.16-.17.33-.32.5-.47.2-.05.35-.25.58-.19-.33.37-.69.72-.96 1.14z"></path><path fill="#D2585A" d="M15.625 11.63c.15.07.33.11.4.29-.05.38.03.76-.07 1.14-.03.12-.08.22-.15.31-.08.1-.19.15-.31.11a.235.235 0 0 1-.18-.23c0-.27-.17-.34-.4-.32-.14 0-.27 0-.4-.08-.24-.15-.43.06-.62.12-.25.08-.53.12-.76.28-.08.06-.18.1-.26.02-.08-.09-.05-.19 0-.29.17-.3.43-.52.72-.68.52-.29 1.08-.46 1.66-.57.11-.02.3.2.35-.09z"></path><path fill="#AC3939" d="M13.445 16.23c-.45.31-.96.44-1.49.43-.75-.02-1.14-.47-1.1-1.21.04-.68.34-1.26.76-1.77.2.2.16.48.05.64-.19.27-.12.56-.16.83-.05.36.09.64.37.85.03.02.06.03.08.05.3.54.75.36 1.17.22.1-.03.21-.04.31-.03z"></path><path fill="#AC3939" d="M13.285 14c-.36.2-.42.55-.13.81.22.2.41.42.6.64-.18-.03-.32.08-.47.15-.17.08-.33.04-.36-.12-.09-.46-.36-.91-.04-1.39.21-.31.5-.5.84-.64.14-.06.12.05.14.13-.03.01-.07.03-.1.04-.13-.02-.24 0-.28.16l-.01.02-.05.05c-.06.03-.11.07-.13.14zM14.235 13.59s-.05-.03-.07-.05q-.03-.045-.06 0c-.04 0-.09 0-.13.01 0-.06 0-.13.06-.17.21-.11.84.22.88.46.03.15-.06.16-.16.16-.16-.13-.32-.25-.48-.38 0-.03-.01-.05-.05-.03z"></path><path fill="#D2585A" d="M14.685 11.54c.26-.06.52-.09.77.02-.26 0-.52.04-.77-.02"></path><path fill="#AC3939" d="M13.865 15.98c-.07.12-.2.17-.32.22.01-.22.16-.23.32-.22"></path><path fill="#D2585A" d="M14.305 11.64c.07-.08.16-.05.24-.06-.06.09-.16.05-.24.06"></path><path fill="#AC3939" d="M14.005 15.87c.01.11-.06.12-.14.13-.01-.11.03-.15.14-.13"></path><path fill="#D2585A" d="M14.115 11.7c.04-.07.12-.05.18-.06-.04.07-.11.06-.18.06"></path><path fill="#AC3939" d="M14.035 15.73s.06.08.08.12c-.04.02-.08.05-.13.02.02-.05.03-.09.05-.14"></path><path fill="#C34A4A" d="M13.475 13.8c.04-.15.15-.18.28-.16v.04l-.17.11c-.04 0-.08 0-.11.01M13.415 13.86l.05-.05zM14.105 13.54s.04-.03.06 0h-.06"></path><path fill="#B9B4A9" d="M14.235 13.59s.04 0 .04.03c-.02 0-.03-.01-.04-.03"></path><path fill="#F88F42" d="M14.355 10.68c.17-.3.1-.46-.25-.43-.46.04-.84-.18-1.25-.31-.2-.06-.35-.29-.5-.47-.36-.45-.7-.92-1.21-1.22-.21-.12-.17-.29-.03-.46.08-.1.22-.18.19-.34.39-.06.67.01.92.39.23.35.62.58.95.86.57.48 1.07 1.04 1.7 1.45.11.07.23.14.34.22.05.04.09.09.07.16-.02.08-.09.08-.16.08-.26-.01-.52 0-.78.06zM16.255 11.71c-.71-.72-1.5-.45-2.28-.17-.15.05-.28.16-.44.17-.03-.16-.11-.14-.22-.08-.24.12-.47.26-.73.32.13-.31.46-.3.69-.45.28-.18.59-.32.89-.46.79-.37 1.39-.12 1.98.39.09.08.12.17.11.28"></path><path fill="#C77448" d="M11.695 12.73c-.17.16-.35.31-.5.47-.11.11-.23.18-.38.17l.06-.21c.13 0 .12-.09.12-.18.09-.13.17-.26.26-.39.26-.16.43-.42.63-.65.05-.02.09-.04.14-.06.08.07.02.13-.02.19-.06.1-.07.18.08.19v.08c-.13.12-.36.15-.38.38z"></path><path fill="#EC7A37" d="M12.075 12.34v-.08c.16-.12.29-.28.5-.31.27-.06.5-.2.73-.32.11-.06.19-.09.22.08-.3.21-.6.43-.93.6-.19-.23-.35.1-.53.04z"></path><path fill="#F88F42" d="M13.845 10.81c.09-.17.23-.18.38-.12-.11.09-.24.13-.38.12M13.595 10.87c.01-.08.03-.16.12-.06-.03.05-.07.06-.12.06"></path><path fill="#B94F24" d="M11.885 11.95c-.2.23-.36.48-.63.65.12-.35-.02-.46-.36-.62-.7-.34-1.38-.76-1.77-1.47-.23-.42-.49-.89-.3-1.44.06-.17 0-.36-.12-.5.03-.05.09-.09.08-.17.3-.08.51-.32.77-.45.02 0 .05-.01.07-.02 0-.01.02-.02.03-.02.03.26-.17.43-.21.68-.08.54-.04.74.41 1.07.31.23.59.49.77.82.17.32.52.46.68.78.02.03.07.05.11.05.36.06.49.29.47.63zM10.995 12.98c0 .09 0 .18-.12.18q0-.135.12-.18"></path><path fill="#D36129" d="M9.635 7.93s-.05.01-.07.02c0-.08.04-.06.07-.02M12.075 12.34c.18.06.34-.26.53-.04-.12.07-.17.22-.33.23-.23-.07-.38.14-.58.19.02-.23.25-.26.38-.38"></path><path fill="#83361D" d="M11.025 16.6c-.05.05-.1.09-.16 0 .05-.07.1-.04.16 0"></path></g></g></svg>