<svg xmlns="http://www.w3.org/2000/svg" fill="none" viewBox="0 0 25 25" width="48" height="48" class="form-header-menus__icon"><g clip-path="url(#clip0_7803_3704)"><path fill="#fff" d="M12.375 24.27c6.627 0 12-5.373 12-12s-5.373-12-12-12-12 5.373-12 12 5.373 12 12 12"></path><mask id="a" width="14" height="14" x="5" y="5" maskUnits="userSpaceOnUse" style="mask-type:luminance;"><path fill="#fff" d="M18.875 5.77h-13v13h13z"></path></mask><g mask="url(#a)"><path fill="#805941" d="M18.635 15.16c-.43 1.36-1.37 2.33-2.55 3.05-1.5.92-3.37.68-4.69-.5-1.03-.92-1.88-2.01-2.6-3.18-.38-.62-.81-1.2-1.34-1.71-.53-.5-.99-1.08-1.28-1.75-.6-1.39-.31-2.79.79-3.89.42-.42.88-.78 1.42-1.03 0 .22.01.44.02.66 0 .03-.01.07-.02.1-.22.03-.24.19-.24.36-.04.04-.08.07-.11.11-.36.04-.16.52-.47.59-.08.04-.16.07-.23.11-.01-.13.01-.3-.18-.32-.18-.02-.27.13-.37.25-.76.96-.78 2.28-.11 3.41.49.83 1.32 1.34 1.85 2.13.88 1.32 1.68 2.68 2.87 3.77.88.81 1.85 1.14 3 1.03.89-.09 1.29-.46 1.31-1.17v-.12c.35.04.64-.16.96-.21.3-.05.47-.17.45-.49.37.02.53-.25.73-.49.23-.27.34-.68.78-.72z"></path><path fill="#AA6F3E" d="M18.635 15.16c-.44.05-.55.45-.78.72-.2.24-.36.51-.73.49-.31-.04-.63-.15-.94 0-.09-.13-.22-.12-.35-.12-.25-.22-.55-.08-.82-.12-.02-.05-.03-.14-.07-.15-.98-.3-1.45-1.31-2.38-1.7-.21-.09-.38-.4-.48-.64-.38-.9-1.11-1.54-1.84-2.08-.95-.71-1.54-1.62-2.07-2.63.2.01.32.13.42.29.8 1.22 1.99 2.05 3.03 3.03.22.21.46.4.56.67.19.54.77.78.95 1.32.05.15.26.16.38.25.56.39 1.33.23 1.85.71 0 .21.04.42.25.47.58.12 1.17.42 1.75 0 .25-.19.53-.36.6-.71.42-.07.37-.7.85-.71 0 .32 0 .63-.17.91z"></path><path fill="#B98246" d="M15.355 15.19c-.52-.48-1.29-.31-1.85-.71-.12-.09-.33-.1-.38-.25-.19-.54-.76-.78-.95-1.32-.1-.27-.34-.46-.56-.67-1.03-.99-2.22-1.82-3.03-3.03-.1-.15-.23-.27-.42-.29v-.35c-.07-.5.28-.92.24-1.42v-.24c0-.03.01-.07.02-.1.43-.28.92-.5 1.18-1 .43-.16.85.14 1.28.04l-.12.59c-.16 0-.31.01-.47.02q-.12-.18-.24 0c-.23 0-.46-.03-.58.23-.42.11-.62.38-.73.81-.33 1.23.77 2.7 1.7 3.15.47.23.84.53 1.16.94.55.71.95 1.59 1.94 1.84.05.01.12.06.13.11.13.6.64.68 1.1.82.02.22.18.24.36.23l.24.24v.36z"></path><path fill="#C99653" d="m10.755 6.45.12-.59c.41-.05.79.09 1.12.29 2.11 1.29 4.19 2.62 5.64 4.71.24.34.43.69.6 1.07-.26.29-.04.6-.04.9-.23-.03-.34-.16-.35-.39 0-.16-.03-.3-.09-.45-.29-.76-.95-1.27-1.37-1.94-.16-.26-.41-.59-.72-.56-.54.05-.73-.29-.92-.64-.19-.36-.44-.63-.77-.86-.41-.29-.84-.57-1.24-.88-.59-.47-1.22-.75-1.99-.65z"></path><path fill="#C08E58" d="M18.185 12.83c0-.3-.22-.61.04-.9.44.71.8 1.44.57 2.32-.48 0-.43.64-.85.71v-.35c.4-.55.4-1.15.24-1.77z"></path><path fill="#AA6F3E" d="M9.595 5.82c-.26.49-.75.71-1.18 1 0-.22-.01-.44-.02-.66.36-.27.77-.34 1.2-.33z"></path><path fill="#693920" d="M15.715 17.2c-.02.71-.42 1.09-1.31 1.17-1.15.11-2.12-.22-3-1.03-1.19-1.1-1.99-2.46-2.87-3.78-.52-.78-1.36-1.29-1.85-2.13-.66-1.14-.65-2.45.11-3.41.1-.12.19-.27.37-.25.19.02.17.18.18.32-.14.35-.13.73-.15 1.1-.08 1.14.32 2.17 1.13 2.89.67.59 1.42 1.02 1.8 1.91.39.9 1.15 1.57 1.76 2.33.54.68 1.19.93 2.01 1.01.63.06 1.2-.34 1.83-.13z"></path><path fill="#97562C" d="M15.005 16.13c.28.04.58-.1.82.12.05.24.16.29.35.12.31-.15.63-.04.94 0 .03.32-.15.44-.45.49-.32.06-.62.25-.96.21-.7-.78-1.74-.44-2.6-.7-.44-.14-.52-.27-.59-.59-.04-.21-.04-.47-.32-.18-.31.33-.44.07-.56-.16-.48-.84-.98-1.66-1.55-2.44-.21-.3-.49-.47-.76-.69-.53-.44-1.3-.73-1.3-1.61.06.01.13 0 .17.04.55.44.93 1.17 1.8 1.09.03 0 .08.04.09.07.26.65.82 1.04 1.24 1.56.49.6.99 1.2 1.67 1.59.22.12.38.25.5.47.35.64.76.81 1.49.62z"></path><path fill="#8A4C28" d="M8.045 10.7c0 .88.77 1.18 1.3 1.61.27.22.54.4.76.69.56.79 1.07 1.6 1.55 2.44.13.22.25.48.56.16.28-.29.27-.03.32.18.07.32.15.45.59.59.86.27 1.89-.07 2.6.7v.12c-.62-.21-1.2.2-1.83.13-.82-.08-1.46-.33-2.01-1.01-.61-.76-1.37-1.42-1.76-2.33-.38-.89-1.13-1.32-1.8-1.91-.81-.72-1.21-1.75-1.13-2.89.02-.37.01-.75.15-1.1.08-.04.16-.07.23-.11.07.51-.22 1.1.3 1.53.03.03.02.17-.01.21-.31.4-.04.68.18.98z"></path><path fill="#A26234" d="M8.045 10.7c-.22-.29-.5-.57-.19-.98.04-.05.05-.19.02-.21-.52-.43-.23-1.02-.3-1.53.32-.07.12-.55.47-.59-.01.25.02.5-.07.74-.07.19-.1.39.18.45v.35c.53 1 1.12 1.92 2.07 2.63.73.54 1.46 1.18 1.84 2.08.1.24.26.56.48.64.93.39 1.4 1.39 2.38 1.7.04.01.04.1.07.15-.72.19-1.13.02-1.49-.62-.12-.21-.28-.34-.5-.47-.68-.39-1.18-.99-1.67-1.59-.42-.52-.98-.91-1.24-1.56-.01-.03-.06-.07-.09-.07-.87.09-1.25-.64-1.8-1.09-.04-.03-.11-.03-.17-.04z"></path><path fill="#AA6F3E" d="M8.155 8.58c-.28-.06-.25-.26-.18-.45.09-.24.06-.49.07-.74.04-.04.08-.07.11-.11l.24-.12c.04.49-.31.92-.24 1.42"></path><path fill="#A26234" d="m8.405 7.16-.24.12c0-.17.01-.34.24-.36z"></path><path fill="#C08E58" d="M15.355 15.19v-.36c.23.11.45.23.68.33.44.19.72.09.73-.44.18-.02.24.15.35.23.28.39.55.04.82 0-.06.36-.34.53-.59.71-.18-.11-.35-.31-.57-.22-.53.19-.97-.07-1.43-.25z"></path><path fill="#B98246" d="M15.355 15.19c.46.17.9.43 1.43.25.23-.08.39.12.57.22-.58.42-1.17.12-1.75 0-.22-.04-.26-.26-.25-.47"></path><path fill="#A26234" d="M16.185 16.37c-.19.18-.3.12-.35-.12.13 0 .27-.01.35.12"></path><path fill="#D6AB62" d="M18.185 12.83c.16.62.17 1.23-.24 1.77h-.23c.07-.24.18-.48.2-.73.03-.24.18-.56-.2-.7v-.11c-.09-1.41-1.02-2.34-2.36-2.86-.56-.22-1.12-.49-1.53-1-.3-.37-.58-.8-1.06-.98-.16-.08-.31-.16-.47-.24-.03-.29-.25-.44-.44-.59-.65-.52-1.76-.43-2.2.11-.37.45.02.8.05 1.2-.52-.13-.71-.5-.53-1.05.1-.31.2-.63.3-.95.12-.26.36-.24.58-.23q.12.165.24 0c.16 0 .31-.01.47-.02.77-.1 1.4.18 1.99.65.4.31.82.59 1.24.88.32.23.58.5.77.86.19.35.38.69.92.64.31-.03.56.31.72.56.42.68 1.07 1.18 1.36 1.94.06.15.08.3.09.45 0 .23.11.37.35.39z"></path><path fill="#C99653" d="M9.465 6.69c-.1.32-.2.63-.3.95-.18.55 0 .92.53 1.06-.09.56.12.99.56 1.32.48.37.98.69 1.53.96.13.06.33.06.37.25.22.96.79 1.56 1.78 1.74.21.04.34.2.36.42.02.19.11.34.25.45.38.3.78.59 1.16.89.3.23.71.34 1.07 0-.01.53-.29.63-.73.44-.23-.1-.45-.22-.68-.33l-.24-.24a.37.37 0 0 0-.36-.23c-.46-.14-.97-.22-1.1-.82 0-.05-.08-.1-.13-.11-.99-.24-1.4-1.13-1.94-1.84-.32-.42-.69-.72-1.16-.94-.93-.45-2.02-1.92-1.7-3.15.11-.43.31-.7.73-.81z"></path><path fill="#C08E58" d="M14.765 14.37c.17 0 .29.08.36.23-.17 0-.33-.01-.36-.23"></path><path fill="#C99653" d="M10.285 6.46q-.12.15-.24 0c.08-.12.16-.11.24 0M17.725 14.6h.23v.34c-.27.05-.54.4-.82 0 .12-.08.24-.15.35-.23l.24-.12z"></path><path fill="#D6AB62" d="M17.485 14.72c-.12.08-.24.15-.35.23-.12-.08-.17-.25-.35-.23-.36.34-.77.23-1.07 0-.38-.3-.78-.59-1.16-.89a.64.64 0 0 1-.25-.45.45.45 0 0 0-.36-.42c-.99-.18-1.56-.78-1.78-1.74-.04-.19-.24-.19-.37-.25-.55-.26-1.05-.59-1.53-.96-.44-.34-.65-.76-.56-1.32.06.03.17.06.19.11.37 1.27 1.43 1.6 2.52 1.89l.12.12c0 .92.53 1.52 1.65 1.89.08.04.16.08.23.12.06.49.33.77.82.82l.24.24c.09.37.31.59.71.59h.24c.09.12.23.11.36.11h.23c.16.01.35-.04.47.12z"></path><path fill="#E6C888" d="M12.295 7.98c.16.08.31.16.47.24l.12.59h-.24c-.31-.24-.47-.61-.84-.8-.35-.19-.61-.02-.85.16-.2.15-.24.39-.13.64.42.97 1.16 1.07 1.83.24.46.09.39.44.3.74-.08.28-.31.35-.61.26-.2-.06-.42-.03-.64-.05-1-.08-1.84-1.04-1.76-1.99.04-.49.54-.74 1.01-.62.49.13.91.36 1.35.59z"></path><path fill="#DFB975" d="m12.885 8.81-.12-.59c.48.18.77.61 1.06.98.41.52.98.79 1.53 1 1.34.52 2.27 1.45 2.36 2.86-.16-.12-.31-.24-.47-.36-.01-.14-.09-.22-.24-.23-.04-.08-.07-.16-.11-.24-.04-.16-.08-.31-.13-.47 0-.2-.15-.3-.25-.44-.32-.44-.85-.58-1.28-.86-.28-.22-.64-.21-.95-.39-.56-.33-1.04-.72-1.41-1.26zM12.295 7.98c-.43-.23-.86-.47-1.35-.59-.47-.12-.97.13-1.01.62-.08.95.77 1.91 1.76 1.99.15.32.63.32.71.71-1.1-.29-2.16-.63-2.52-1.89-.02-.05-.12-.08-.19-.12-.02-.4-.42-.75-.05-1.2.44-.53 1.55-.63 2.2-.11.19.16.41.31.44.59z"></path><path fill="#E6C888" d="M17.255 12.71c.16.12.31.24.47.36v.11c-.07.14-.13.27-.09.44.1.41.05.73-.47.77-.11 0-.14.11-.16.21h-.23c-.06-.23-.17-.3-.36-.11h-.24c-.19-.26-.36-.53-.71-.59l-.24-.24v-.24c.34.07.56.34.85.48.57.28 1.12-.04 1.15-.67v-.52z"></path><path fill="#DFB975" d="M17.015 14.6c.02-.1.05-.2.16-.21.51-.05.57-.37.47-.77-.04-.17.02-.3.09-.44.38.14.22.46.2.7-.03.25-.13.49-.2.73l-.24.12c-.12-.17-.31-.11-.47-.12z"></path><path fill="#E6C888" d="M15.245 10.47c.43.28.96.42 1.28.86.1.14.25.24.25.44-.28.04-.44-.16-.58-.32-.2-.25-.44-.29-.72-.26q-.12-.165-.24 0h-.24c-.28-.22-.6-.1-.9-.11-.2 0-.4.04-.48.25-.1.24.07.43.22.56.41.34.85.64 1.27.95.04.08.08.16.12.23v.35c-.41 0-.4-.61-.83-.58l-.24-.12c-.15-.52-.83-.62-.94-1.18-.1-.37-.27-.79.17-1.04.37-.21.8-.16 1.16.07.27.18.47.04.67-.1z"></path><path fill="#E8C380" d="M15.245 10.47c-.21.14-.4.28-.67.1-.36-.23-.79-.28-1.16-.07-.44.24-.28.66-.17 1.04-.25.03-.34-.12-.41-.33-.05-.16-.06-.36-.3-.38l-.12-.12c-.08-.39-.56-.39-.71-.71.21.01.44-.01.64.05.3.09.53.03.61-.26.09-.29.16-.64-.3-.74v-.23h.24c.36.54.84.93 1.41 1.26.31.18.67.18.95.39z"></path><path fill="#DFB975" d="M12.525 10.82c.24.02.25.22.3.38.07.21.16.36.41.33.11.56.79.66.94 1.18-1.12-.37-1.64-.97-1.65-1.89M14.415 12.83c.43-.02.42.58.83.59v.24c-.49-.06-.77-.33-.83-.82zM15.475 13.89c.35.06.52.33.71.59-.4 0-.61-.22-.71-.59M16.425 14.49c.19-.19.3-.12.36.11-.13 0-.26.01-.36-.11"></path><path fill="#EBCF97" d="M12.645 8.81v.23c-.67.83-1.41.73-1.83-.24-.11-.25-.07-.49.13-.64.24-.18.5-.34.85-.16.36.19.53.57.84.8z"></path><path fill="#EED8A4" d="M15.005 11.18h.24q.12.165.24 0c.28-.02.52.02.72.26.14.17.3.37.58.33.04.16.09.31.13.47-.18.18-.04.21.11.24v.41c-.02.26.11.58-.21.73-.31.14-.58.01-.84-.21-.2-.17-.41-.37-.72-.33-.04-.08-.08-.16-.12-.23-.02-.2-.09-.4-.25-.51-.42-.31-.37-.59.02-.88.06-.05.08-.17.11-.26z"></path><path fill="#EBCF97" d="M15.245 13.06c.3-.03.52.16.72.33.26.22.53.35.84.21.32-.14.18-.47.21-.73.01-.13 0-.27 0-.41.15.01.22.09.24.23v.53c-.03.63-.57.95-1.15.67-.3-.14-.52-.42-.85-.49v-.35z"></path><path fill="#EBCF97" d="M17.015 12.47c-.15-.03-.29-.06-.11-.24.04.08.07.16.11.24M15.005 11.18c-.04.09-.05.21-.12.26-.39.29-.44.57-.02.88.16.12.23.31.25.51-.43-.31-.87-.61-1.27-.95-.15-.13-.32-.32-.22-.56.08-.21.29-.26.48-.25.3.01.62-.11.9.11M15.475 11.17q-.12.165-.24 0 .12-.165.24 0"></path></g></g></svg>