<svg xmlns="http://www.w3.org/2000/svg" fill="none" viewBox="0 0 25 25" width="48" height="48" class="form-header-menus__icon"><g clip-path="url(#clip0_7803_1226)"><path fill="#fff" d="M12.375 24.27c6.627 0 12-5.373 12-12s-5.373-12-12-12-12 5.373-12 12 5.373 12 12 12"></path><path fill="#F29E2B" d="M8.245 19.3c2.425 0 4.39-2.248 4.39-5.02s-1.966-5.02-4.39-5.02c-2.425 0-4.39 2.248-4.39 5.02s1.965 5.02 4.39 5.02"></path><path fill="#F08022" d="M16.505 19.3c2.425 0 4.39-2.248 4.39-5.02s-1.965-5.02-4.39-5.02-4.39 2.248-4.39 5.02 1.966 5.02 4.39 5.02"></path><path fill="#276E04" d="M9.855 9.53v2.82l2.5 1.41 2.51-1.41V9.53l-2.51-1.41z"></path><path stroke="#276E04" stroke-linecap="round" stroke-linejoin="round" stroke-width="1.02" d="M14.245 5.55c-.6-.6-1.89-.37-1.89 1.01v3.12"></path><path fill="#F08022" d="M10.825 9.26c-1.71 0-3.1 2.25-3.1 5.02s1.39 5.02 3.1 5.02c.56 0 1.08-.24 1.54-.66V9.92c-.45-.42-.98-.66-1.54-.66"></path><path fill="#F29E2B" d="M13.925 9.26c-.57 0-1.11.26-1.57.69v8.66c.46.44.99.69 1.57.69 1.71 0 3.1-2.25 3.1-5.02s-1.39-5.02-3.1-5.02"></path></g></svg>