<svg xmlns="http://www.w3.org/2000/svg" fill="none" viewBox="0 0 25 25" width="48" height="48" class="form-header-menus__icon"><g clip-path="url(#clip0_7803_6085)"><path fill="#fff" d="M12.875 24.27c6.627 0 12-5.373 12-12s-5.373-12-12-12-12 5.373-12 12 5.373 12 12 12"></path><mask id="a" width="16" height="15" x="5" y="4" maskUnits="userSpaceOnUse" style="mask-type:luminance;"><path fill="#fff" d="M20.125 4.04H5.475v14.65h14.65z"></path></mask><g mask="url(#a)"><path fill="#F88B5A" d="M7.675 18.39c-.06-.05-.06-.14-.06-.22 0-.91 0-1.82-.02-2.73 0-.23.07-.34.25-.38.28-.07.56-.14.85-.18.57-.08 1.1-.33 1.62-.65.61-.37 1.21-.76 1.77-1.25.08-.07.2-.12.22-.27.21-.08.34-.28.48-.48.07-.04.24-.14.32-.37.02-.06.03-.11.04-.16l.27-.96c0-.33-.02-.65-.03-.97.12 0 .23 0 .35-.01.67-.26.88-.58.94-.85.03-.14.01-.28.1-.47.1-.24.28-.4.49-.54 1.29-.83 1.91-1.21 2.34-1.58.37-.32.63-.62.61-.65-.04-.07-1.77 1.04-3.07 2.04-.43.33-.87.55-1.39.53-.6-.02-.97.47-.97 1.22-.01.04-.03.07-.04.11-.74-.04-1.45.14-2.17.33-.58.16-1.13.4-1.66.73-.51.32-1.01.68-1.44 1.15-.45.48-.83 1.02-1.07 1.71-.11.3-.13.69-.41.87-.3-.16-.41-.42-.32-.8.06-.23.14-.44.22-.66.66-1.77 1.74-3.16 2.71-4.66.24-.37.53-.66.79-1.01.23-.3.47-.58.74-.84.62-.59 1.3-1.02 2.03-1.37 1.04-.51 2.13-.76 3.25-.82.49-.03.98.01 1.46.09.86.14 1.67.45 2.35 1.14.54.55.81 1.25.68 2.13-.09.67-.37 1.23-.74 1.71-.92 1.19-2.09 1.92-3.26 2.64-.68.42-1.37.81-2.06 1.21-.55.32-1.08.69-1.65.97-.75.37-1.51.68-2.28.95-.67.24-1.35.45-2.06.26-.16-.04-.13.06-.12.17 0 .85-.05 1.7-.02 2.55 0 .12.03.25-.05.35z"></path><path fill="#F7BA9E" d="M7.675 18.39c.08-.1.05-.23.05-.35-.03-.85.02-1.7.02-2.55.09-.04.17-.04.27 0 .17.05.34.14.53.11.45-.06.89-.16 1.32-.33l1.53-.6c.57-.22 1.11-.53 1.65-.83.6-.33 1.16-.73 1.76-1.05.62-.34 1.23-.69 1.83-1.08.72-.48 1.44-.97 2.07-1.62.59-.59 1.09-1.27 1.32-2.19.02-.07.01-.17.11-.18.03.6-.02 1.2-.07 1.8 0 .12-.02.25 0 .37.13 1.05-.22 1.88-.77 2.62-.61.82-1.36 1.41-2.15 1.94-1.35.93-2.77 1.68-4.16 2.52-1.21.74-2.51 1.23-3.82 1.61-.5.14-1.01.21-1.47-.2z"></path><path fill="#F7804B" d="M12.785 12.24c-.13.2-.26.4-.48.48-1.23.1-2.4.44-3.5 1.14-.85.54-1.61 1.21-2.15 2.2-.15.28-.26.59-.35.91-.05.18-.11.34-.23.47-.14 0-.11-.16-.11-.24-.02-.95-.1-1.89.03-2.84.29-.18.3-.57.41-.87.24-.68.62-1.23 1.07-1.71.43-.47.93-.83 1.44-1.15.52-.33 1.08-.57 1.66-.73.71-.19 1.43-.37 2.17-.33v1.1c-.02.51.03.75.05 1.41v.16z"></path><path fill="#F6BEA3" d="M5.995 14.37c-.13.94-.05 1.89-.03 2.84 0 .08-.02.23.11.24-.07.06-.08.24-.2.18a.55.55 0 0 1-.31-.38c-.07-.33-.07-.67-.08-1-.02-.65 0-1.29-.01-1.94 0-.49.1-.94.27-1.38.37-.97.84-1.86 1.38-2.69.71-1.08 1.42-2.16 2.22-3.14 1.34-1.64 2.97-2.53 4.81-2.89.71-.14 1.42-.2 2.13-.14 1.03.08 2.02.34 2.88 1.11.71.63.99 1.5.96 2.55-.09 0-.09.11-.11.18-.23.92-.73 1.6-1.32 2.19-.64.64-1.35 1.14-2.07 1.62-.6.39-1.21.74-1.83 1.08-.6.33-1.16.73-1.76 1.05-.54.3-1.08.61-1.65.83l-1.53.6c-.43.17-.87.27-1.32.33-.18.03-.35-.06-.53-.11a.4.4 0 0 0-.27 0c0-.11-.03-.21.12-.17.71.19 1.39-.01 2.06-.26.77-.28 1.54-.59 2.28-.95.57-.28 1.1-.65 1.65-.97.69-.4 1.38-.79 2.06-1.21 1.17-.72 2.34-1.45 3.26-2.64.37-.48.65-1.04.74-1.71.12-.88-.14-1.58-.69-2.13-.68-.69-1.49-1-2.35-1.14-.49-.08-.97-.12-1.46-.09-1.12.06-2.21.31-3.25.82-.72.35-1.41.78-2.03 1.37-.26.25-.51.53-.74.84-.26.35-.55.64-.79 1.01-.97 1.5-2.05 2.89-2.71 4.66-.08.22-.17.43-.22.66-.1.38.01.64.32.8z"></path><path fill="#FCC9B2" d="M13.735 9.78c-.12 0-.23 0-.35.01-.22-.05-.44-.1-.61-.31 0-.75.37-1.24.97-1.22.52.02.96-.2 1.39-.53.99-.76 2.03-1.41 3.07-2.04.03-.02.07-.03.1-.04.01.02.03.03.04.05-.2.31-.49.45-.75.64-.76.56-1.55 1.07-2.34 1.58-.34.22-.57.5-.59 1.01-.01.4-.42.76-.85.82-.03 0-.06.02-.09.03zm-.07-.51c.14 0 .26-.05.36-.13.13-.11.12-.23-.02-.31-.11-.06-.23-.04-.34-.03-.13.01-.28.07-.27.27 0 .2.18.16.27.2"></path><path fill="#FBB99C" d="M12.785 9.47c.17.21.39.26.61.31l.03.97-.24.9v.06c-.09.22-.19.42-.39.52v-.16c-.02-.66-.07-.89-.05-1.41V9.57c.01-.04.03-.07.04-.11zM13.735 9.78l.09-.03q-.03.06-.09.03"></path><path fill="#F0A182" d="M13.665 9.26c-.1-.04-.26 0-.27-.2 0-.2.14-.26.27-.27.11-.01.23-.03.34.03.14.08.16.21.02.31-.1.08-.22.13-.36.13"></path></g></g></svg>