<svg xmlns="http://www.w3.org/2000/svg" fill="none" viewBox="0 0 25 25" width="48" height="48" class="form-header-menus__icon"><g clip-path="url(#clip0_7803_5717)"><path fill="#fff" d="M12.375 24.27c6.627 0 12-5.373 12-12s-5.373-12-12-12-12 5.373-12 12 5.373 12 12 12"></path><path fill="#5F2814" d="M15.725 9.37c-.12.01-.19.07-.19.18 0 .02 0 .03-.03.04-.28.18-.5.41-.63.7-.14.29-.22.61-.33.92 0 .04-.01.07-.02.11-.04.03-.11.05-.12.09-.13.52-.46.93-.75 1.36-.03.05-.04.11-.06.17l-.08.11c-.25.11-.43.27-.52.53-.05.03-.09.07-.14.1-.16.02-.32.01-.4.18-.02.02-.05.03-.07.05-.18-.05-.35 0-.52.04-.36.07-.65-.1-.7-.45-.03-.2.14-.36.28-.45s-.03.15.14.17c.09-.29.42-.38.58-.68.13-.24.48-.37.66-.59.37-.46.82-.87 1.02-1.45 0-.04.01-.08.02-.12a.18.18 0 0 0 .15-.16c0-.06.02-.12.03-.17.32-.01.32-.34.5-.5.19-.17.43-.33.51-.61.01-.06.13-.13.17-.05.14.24.34.14.53.13.08.11.08.21-.02.31-.01 0-.02.02-.02.03z"></path><path fill="#CC763E" d="M8.225 11.83c.06.17.15.26.37.23.23-.03.45-.1.71 0 .16.06.44-.05.55-.2.14-.19.32-.21.53-.23.35-.04.68-.12.94-.37.19-.18.18-.43.32-.63.06-.08.08-.17.19-.2.11-.02.19-.1.22-.2.17-.52.62-.83.99-1.2.09-.1.27-.16.24-.32-.03-.17-.21-.07-.31-.1-.06-.02-.06-.07-.07-.12h.1c.07.03.13.02.17-.04.1-.03.21-.06.32-.03.04.1.11.14.21.08.11-.06.17 0 .2.09-.07.25-.17.46-.39.65-.22.18-.23.51-.46.72-.28.26-.5.58-.75.86-.1.12-.23.21-.38.29-.22.12-.35.36-.51.56-.14.18-.31.27-.51.35-.38.15-.79.25-1.14.43-.52.27-1.07.22-1.62.28-.15-.36-.09-.72.02-1.07.08.04.05.12.07.19z"></path><path fill="#DC8F4C" d="M8.395 10.95c.11.04.08.11.05.19-.08.28.09.44.39.37.06-.01.12-.08.17-.04.45.32.78-.1 1.13-.21.2-.07.5-.18.67-.46.16-.25.41-.52.46-.77.09-.39.45-.49.6-.78.06-.1.15-.19.05-.32-.09-.12-.21-.08-.34-.09s-.29.2-.4-.04c.55-.17 1.1-.3 1.68-.3 0 .05.01.1.07.12.11.03.28-.07.31.11.03.16-.14.22-.24.32-.36.37-.81.68-.99 1.2-.03.09-.11.17-.22.2-.12.03-.14.12-.19.2-.14.2-.13.45-.32.63-.27.25-.59.33-.94.37-.21.02-.38.04-.53.23-.11.15-.39.26-.55.2-.26-.1-.48-.02-.71 0-.22.02-.31-.07-.37-.23-.02-.06.01-.14-.07-.19-.02-.27.22-.44.25-.69z"></path><path fill="#E4A868" d="M8.525 10.72c.57-1.04 1.45-1.7 2.68-1.92.1.24.27.03.4.04.12.01.25-.03.34.09.1.13 0 .22-.05.32-.15.29-.52.39-.6.78-.06.25-.3.52-.46.77-.18.28-.47.39-.67.46-.34.12-.67.53-1.13.21-.05-.04-.12.02-.17.04-.3.07-.46-.09-.39-.37.02-.08.06-.15-.05-.19 0-.1.08-.16.12-.23zm.27.32c.11.04.24.11.33-.02.05-.08.07-.13.18-.06.24.15.54.1.72-.12.06-.08.1-.18.21-.2.34-.07.45-.33.55-.59.11-.29.36-.5.43-.8.01-.06.11-.12.03-.18-.05-.03-.14-.03-.21-.01-.5.1-1 .22-1.33.62-.28.34-.74.51-.94.92-.03.07-.1.12-.11.21-.03.11.01.2.12.24z"></path><path fill="#76361B" d="M12.145 14.28s-.03.02-.05.02c-.33 0-.64.12-.98.09-.04-.33-.17-.4-.44-.25-.07.04-.13.06-.2 0-.14-.11-.31-.15-.47-.21-.25-.09-.27-.18-.1-.39.12-.15.32-.22.39-.41h.06c.21-.05.47 0 .54-.29.16-.06.31-.12.47-.17.26-.05.47-.18.62-.39.14.03.28.02.37-.09.21-.29.52-.49.74-.77.15-.19.24-.4.3-.63.21-.02.23-.33.48-.3-.2.57-.65.99-1.02 1.45-.18.23-.53.35-.66.59-.16.29-.49.39-.58.68-.17-.03 0-.26-.14-.17s-.31.25-.28.45c.04.34.33.52.7.45.17-.04.34-.09.52-.04-.08.12-.16.25-.24.37z"></path><path fill="#D2C2B2" d="M17.045 5.78c-.06 0-.08.11-.09.18-.04.29-.08.59-.13.88-.03.18.03.26.22.27-.03.15-.3.26-.09.43.19.15.37 0 .54-.09.16-.09.27-.22.25-.41-.02-.16-.17-.15-.29-.18.05-.16.25-.21.31-.36.13.02.28 0 .36.15.02.08.1.09.16.14.17.13.23.23-.01.37-.25.14-.35.44-.65.56-.29.11-.56.18-.86.06-.1-.04-.19-.08-.29 0-.31.24-.62.48-.93.71h-.16c-.17-.13-.4-.19-.42-.44.15 0 .22-.13.33-.2.42-.28.68-.62.59-1.17-.05-.28.04-.57.18-.83.09-.16.16-.35.41-.36-.34.38-.49.82-.44 1.33.04.47-.19.82-.59 1.09-.12.08-.35.16-.21.35.14.18.31.05.46-.05.28-.18.46-.45.72-.64.11-.08.17-.22.13-.35-.15-.52.12-.99.17-1.48.03-.25 0-.29-.24-.25.2-.24.46-.26.77-.04 0 .15.13.35-.18.37z"></path><path fill="#B8602E" d="M14.325 8.58c-.4.55-.72 1.14-1.22 1.63-.17.17-.15.44-.37.61-.3.24-.54.55-.88.76-.24.15-.38.4-.64.54-.37.19-.76.34-1.15.48-.18.07-.37.15-.5.3-.04 0-.08 0-.12-.01-.42-.08-.8-.02-1.11.26-.14-.12-.12-.3-.2-.45.54-.06 1.09 0 1.62-.28.35-.18.76-.29 1.14-.43.2-.08.37-.17.51-.35.16-.19.28-.44.51-.56.15-.08.27-.17.38-.29.25-.29.47-.6.75-.86.23-.21.25-.54.46-.72.22-.18.32-.4.39-.65h.44z"></path><path fill="#954D2A" d="M9.935 12.96c.47-.19.95-.37 1.43-.55.11-.04.16-.19.31-.17 0 .21-.24.27-.31.44-.16.06-.31.12-.47.17-.21.04-.43.07-.54.29h-.06c-.25.02-.45.18-.69.24-.13.03-.26.22-.12.32.26.2-.01.19-.11.29.57.26 1.13.44 1.76.4.33.03.65-.1.98-.09-.95.41-2.57.11-3.27-.6.02-.13.1-.24.08-.39-.02-.16.13-.23.28-.25.12-.02.22-.02.26-.15.04 0 .08 0 .12.01.11.1.23.11.37.05z"></path><path fill="#9C8D80" d="M16.165 8.28c.3-.2.55-.36.95-.22.43.14.71-.23 1.03-.42.21-.13.39-.32.59-.48.06.15.02.29-.04.43-.26.64-.89.9-1.63.68-.2-.06-.39-.1-.55.04-.25.22-.54.4-.74.66-.12-.13-.24-.25-.36-.38 0-.04-.02-.09-.03-.13h.16c.26.1.46-.06.63-.18z"></path><path fill="#B5A798" d="M16.465 7.75c.1-.07.19-.04.29 0 .3.13.57.06.86-.06.3-.12.4-.42.65-.56s.19-.23.01-.37c-.06-.04-.13-.06-.16-.14.32.06.55.21.62.53-.19.16-.37.35-.59.48-.32.2-.6.56-1.03.42-.41-.14-.66.02-.95.22-.17.11-.37.28-.63.18.31-.24.62-.48.93-.71zM17.405 6.85c-.08 0-.12.03-.14.1l-.21.15c-.19 0-.25-.09-.22-.27.05-.29.09-.58.13-.88.01-.07.02-.17.09-.18.32-.01.18-.22.18-.37.24.11.3.33.35.56.04.18.03.38.19.52-.07.15-.26.2-.31.36h-.05z"></path><path fill="#76361B" d="M14.825 10.99c-.06.02-.09.05-.04.12l-.06.12c-.06 0-.13-.02-.19-.03.11-.31.19-.62.33-.92.13-.29.35-.52.63-.7-.29.44-.42.95-.67 1.4z"></path><path fill="#A9562B" d="M8.335 13.16c.32-.29.7-.34 1.11-.26-.03.13-.14.14-.26.15-.14.02-.3.09-.28.25.02.15-.06.26-.08.39-.26-.1-.33-.36-.49-.54z"></path><path fill="#76361B" d="M15.765 9.03c-.19 0-.39.11-.53-.13-.04-.08-.15 0-.17.05-.07.28-.31.44-.51.61-.18.16-.18.48-.5.5.03-.21.18-.37.32-.52.21-.22.47-.4.61-.68.07-.13.26-.06.32-.19l.09-.06c.12.13.24.25.36.38v.05z"></path><path fill="#954D2A" d="M14.535 8.92c-.03-.28.22-.44.28-.69.01-.08.02-.17.09-.23.02 0 .03.02.05.02.02.25.26.32.42.44 0 .04.02.09.03.13l-.09.06c-.34-.14-.55.09-.79.25zM12.455 13.85c.18.02.32-.03.4-.18.05-.03.09-.07.14-.1.13-.05.24-.14.39-.13-.33.4-.73.7-1.25.83.08-.12.16-.25.24-.37.02-.02.05-.03.07-.05z"></path><path fill="#76361B" d="M14.525 11.68s-.03.07-.05.11c-.28.24-.36.6-.57.88-.09.11-.17.21-.31.27.02-.06.02-.12.06-.17.29-.43.62-.85.75-1.36 0-.04.08-.06.12-.09.13.12-.08.24 0 .36"></path><path fill="#C27142" d="M13.685 8.49c-.1.06-.17.02-.21-.08.31-.07.62-.12.91-.24.03.06.07.13.1.19-.02.1-.05.18-.16.22h-.44c-.04-.09-.1-.15-.2-.09"></path><path fill="#954D2A" d="M13.475 13.35c.01-.1.02-.21.04-.31l.08-.11c.14-.05.22-.15.31-.27.21-.28.3-.64.57-.88-.24.58-.58 1.09-1 1.56z"></path><path fill="#76361B" d="M13.395 13.44c-.15-.01-.26.08-.39.13.08-.26.27-.42.52-.53-.01.1-.02.21-.04.31-.03.03-.06.06-.08.1z"></path><path fill="#C27142" d="M14.625 8.27c-.06-.05-.11-.1-.17-.15.19-.26.23-.27.45-.12-.08.06-.08.14-.09.23-.06.01-.13.03-.19.04"></path><path fill="#954D2A" d="M14.535 11.2c.06 0 .13.02.19.03-.03.16-.1.31-.2.45-.08-.12.12-.24 0-.36 0-.04.01-.07.02-.11z"></path><path fill="#B8602E" d="M14.485 8.37c-.03-.06-.07-.13-.1-.19.02-.02.04-.04.07-.06.06.05.11.1.17.15l-.13.1z"></path><path fill="#76361B" d="M15.525 9.55c0-.12.08-.17.19-.17-.03.09-.11.14-.19.17"></path><path fill="#954D2A" d="M14.775 11.11c-.05-.06-.02-.09.04-.12-.01.04-.03.08-.04.12"></path><path fill="#DC8F4C" d="M13.155 8.45c-.04.07-.1.08-.17.04.05-.04.1-.07.17-.04"></path><path fill="#76361B" d="M15.745 9.36h-.02s.01-.02.02-.02z"></path><path fill="#863F1F" d="M14.995 8.85c-.14.28-.4.46-.61.68-.14.15-.29.3-.32.52 0 .06-.02.12-.03.17-.1.01-.22 0-.15.16 0 .04-.01.08-.02.12-.25-.03-.26.28-.48.3.05-.51.4-.86.67-1.25.1-.15.26-.28.27-.48l.21-.15c.23-.16.44-.39.79-.25-.06.13-.26.06-.33.19z"></path><path fill="#76361B" d="M12.865 13.67c-.09.16-.23.2-.4.18.08-.17.25-.16.4-.18M13.885 10.39c-.07-.16.05-.15.15-.16-.01.09-.06.14-.15.16"></path><path fill="#EFC28E" d="M8.775 10.58c.2-.41.66-.58.94-.92.33-.4.83-.52 1.33-.62.07-.01.16-.02.21.01.07.06-.02.12-.03.18-.07.3-.33.51-.43.8-.1.26-.21.53-.55.59-.11.02-.15.13-.21.2-.17.22-.48.27-.72.12-.11-.07-.13-.01-.18.06-.09.14-.22.07-.33.02-.11-.04-.15-.13-.12-.24 0-.08.07-.14.11-.21z"></path><path fill="#863F1F" d="M9.905 13.54c-.16.21-.15.3.1.39.16.06.33.1.47.21.06.05.13.03.2 0 .27-.15.4-.08.44.25-.62.05-1.19-.14-1.76-.4.1-.1.38-.09.11-.29-.14-.11 0-.3.12-.32.24-.05.44-.22.69-.24-.07.19-.27.26-.39.41zM11.985 12.28c.12-.19.25-.36.46-.48.15-.09.34-.21.23-.44.13-.16.26-.32.39-.49.11-.03.21-.05.32-.08-.06.23-.15.45-.3.64-.22.28-.53.48-.74.77-.08.11-.23.12-.37.09z"></path><path fill="#863F1F" d="M11.685 12.18c.1.03.2.07.3.1-.15.22-.36.34-.62.39.07-.17.31-.23.31-.44 0-.02 0-.04.01-.06zM10.355 13.14c.11-.21.33-.25.54-.29-.07.28-.33.24-.54.29"></path><path fill="#E5D8CA" d="M16.695 5.7c-.06.49-.32.96-.17 1.48.04.13-.02.27-.13.35-.26.2-.44.47-.72.64-.15.1-.32.23-.46.05-.14-.19.09-.27.21-.35.4-.26.63-.62.59-1.09-.04-.51.1-.95.44-1.33.23-.05.27 0 .24.25M17.745 7.03c.02.19-.09.32-.25.41s-.35.24-.54.09c-.21-.17.06-.29.09-.43l.21-.15c.08 0 .12-.03.14-.1h.05c.11.04.27.02.29.18z"></path><path fill="#A9562B" d="M11.365 12.41c-.48.18-.95.36-1.43.55-.14.05-.26.05-.37-.05.13-.16.32-.24.5-.3.39-.14.78-.29 1.15-.48.26-.14.4-.39.64-.54.34-.21.58-.52.88-.76.22-.17.2-.44.37-.61.49-.48.82-1.08 1.22-1.63.11-.03.14-.12.16-.22.05-.03.09-.07.13-.1.06-.01.13-.03.19-.04-.06.24-.31.41-.28.69l-.21.15c-.22.14-.41.32-.52.56-.2.44-.64.75-.74 1.25-.13.16-.26.32-.39.49-.03 0-.07-.02-.09 0-.31.26-.68.48-.9.83 0 .02 0 .04-.01.06-.15-.02-.2.13-.31.17z"></path><path fill="#D2C2B2" d="M17.405 6.85c-.02.07-.06.1-.14.1.02-.07.06-.1.14-.1"></path><path fill="#954D2A" d="M14.055 9.55c-.27.39-.62.74-.67 1.25-.11.03-.21.05-.32.08.09-.5.54-.8.74-1.25.11-.24.3-.42.52-.56 0 .2-.16.33-.27.48M12.445 11.8c-.21.12-.34.29-.46.48-.1-.03-.2-.07-.3-.1.23-.35.59-.56.9-.83.02-.01.06 0 .09 0 .11.24-.08.36-.23.44z"></path><path fill="#5F2814" d="M3.695 12.55c-.23-.11-.27-.29-.2-.52.33-.09.74-.02.85-.52.03-.16.27-.09.32 0 .28.44.78.59 1.21.78.4.17.58.74 1.15.59.05.09.1.19.15.28.07.14.18.21.34.2.03.06.06.13.09.19.66.88 1.67 1.36 2.57 1.95.44.29 1.12.31 1.47.66.43.43 1.07.41 1.38.86.28-.14-.14-.45.15-.38s.67.27.74.62c.11.62-.3 1.09-.97 1.16-.32.03-.64.03-.92.22-.05-.02-.1-.03-.15-.05-.23-.25-.52-.14-.8-.1-.1-.03-.2-.07-.3-.1-.28-.4-.69-.59-1.19-.64-.07-.05-.13-.1-.19-.15-.06-.09-.11-.19-.19-.26-.74-.6-1.54-1.13-2.05-1.95-.04-.06-.16-.06-.25-.09l-.09-.18c-.36-.47-.68-.97-1.08-1.41-.39-.42-.89-.72-1.47-.87-.04 0-.07-.01-.08-.05-.08-.2-.22-.25-.43-.19h-.02s-.03-.05-.06-.06z"></path><path fill="#CC763E" d="M18.155 12.39c.39.55.69 1.13.63 1.84-.98.2-1.9.58-2.96.4-.71-.12-1.48-.08-2.22-.12-.39-.02-.73-.09-1.08-.32-.38-.25-.74-.61-1.19-.69a2.5 2.5 0 0 1-.81-.29c-.6-.36-1.15-.79-1.78-1.08-.51-.24-.72-.79-1.2-.99s-.77-.51-1.03-.91c.02-.18.09-.31.31-.27.21.04.3-.06.32-.25.18-.1.38-.11.58-.12.11.1.21.08.32-.01.06-.02.11-.03.17-.05.01.09.04.19-.06.25-.17.12-.52.03-.49.35.03.3.37.3.59.42.83.45 1.79.73 2.37 1.54.1.15.29.24.48.22.22-.02.3.13.45.24.35.26.47.71.9.91.6.28 1.21.25 1.84.12.37-.08.69-.14 1.04.11.28.2.82.23 1.06.04.39-.32.82-.3 1.23-.38.39-.08.5-.28.51-.6 0-.12-.1-.24.02-.36"></path><path fill="#DC8F4C" d="M18.155 12.39c-.12.12-.01.24-.02.36-.01.32-.12.53-.51.6-.41.08-.84.07-1.23.38-.24.19-.78.16-1.06-.04-.36-.26-.67-.19-1.04-.11-.63.13-1.24.16-1.84-.12-.42-.2-.55-.65-.9-.91-.14-.11-.22-.26-.45-.24-.2.02-.38-.08-.48-.22-.58-.81-1.54-1.09-2.37-1.54-.22-.12-.55-.12-.58-.42-.04-.32.32-.24.49-.35.09-.06.07-.16.06-.25 1.01-.31 2.05-.39 3.09-.4-.05.48-.44.19-.66.29-.21.09-.44.09-.53.34-.1.28.11.38.27.53.43.41 1.11.4 1.48 1.03.23.4.81.73 1.22 1.08.46.39 1.03.41 1.42.42.66.01 1.46.56 2.07-.25.07-.1.21-.02.32-.03.55-.04.76-.41.47-.85-.09-.13-.19-.23-.01-.37.19.41.7.59.81 1.07z"></path><path fill="#E4A868" d="M17.345 11.32c-.17.14-.07.23.01.37.29.44.08.81-.47.85-.11 0-.25-.07-.32.03-.61.81-1.41.26-2.07.25-.39 0-.96-.03-1.42-.42-.41-.35-.99-.68-1.22-1.08-.36-.63-1.05-.61-1.48-1.03-.16-.15-.37-.25-.27-.53.09-.25.33-.25.53-.34.22-.1.62.19.66-.29 2.24-.29 4.13.37 5.7 1.86.12.11.3.16.34.33zm-.55-.13c-.06-.14-.2-.2-.3-.3-.58-.6-1.47-.64-2.14-1.09-.79-.52-1.73-.46-2.65-.35-.12.01-.29.05-.35.14-.1.14.1.2.16.29.29.49.84.71 1.19 1.15.31.41.65.8 1.28.73.2-.02.33.14.48.24.42.29.98.21 1.31-.19.16-.19.22-.1.35 0 .23.19.42 0 .59-.14s.18-.31.08-.49z"></path><path fill="#76361B" d="M12.045 18.64c.28-.18.6-.19.92-.22.67-.07 1.08-.53.97-1.16-.06-.36-.45-.55-.74-.62s.12.24-.15.38c-.31-.45-.95-.43-1.38-.86-.36-.35-1.03-.37-1.47-.66-.9-.6-1.91-1.07-2.57-1.95.41-.18.61.34.99.25.23.36.5.69.86.94.53.36 1.18.55 1.71.92.21.15.46.08.68-.05.38.29.81.39 1.3.34.3.02.6.03.9.05.28.45.71.23 1.1.2.03-.01.07-.03.1-.04.22.29.61.3.89.49.4.27.42.44.04.73-.25.19-.52.36-.7.63-.08.13-.21.13-.35.1-.55-.12-.74.08-.64.67-.56.24-1.18.18-1.74.37q-.045.03-.09 0z"></path><path fill="#B8602E" d="M6.525 10.22c.26.39.55.71 1.03.91.47.2.68.75 1.2.99.63.29 1.18.73 1.78 1.08.24.15.51.24.81.29.45.08.81.44 1.19.69.35.23.69.3 1.08.32.74.04 1.51 0 2.22.12 1.06.18 1.98-.2 2.96-.4-.06.29.06.6-.11.89-.71-.32-1.4-.21-2.08.15-.07.03-.14.06-.2.09-.31-.21-.68-.23-1.04-.25-.76-.04-1.51-.07-2.26-.21-.53-.1-.91-.46-1.4-.58-.71-.17-1.29-.59-1.95-.84-.48-.18-.59-.66-.98-.86-1.12-.57-2.01-1.43-3-2.16l.77-.24z"></path><path fill="#954D2A" d="M16.395 15.36c.07-.03.14-.06.2-.09.13.21.32.16.53.12.26-.04.57 0 .62.29.05.27.25.42.36.64-.82 1.61-3.48 3.01-5.36 2.83.57-.19 1.18-.14 1.74-.37 1.11-.26 1.99-.89 2.83-1.66-.23-.12-.7.06-.36-.44.18-.26-.14-.52-.38-.5-.45.04-.88-.13-1.33-.04-.03.02-.07.03-.1.04-.31-.31-.71-.25-1.1-.2-.3-.01-.6-.03-.9-.05-.21-.26-.66-.23-.78-.59.25-.11.41.12.63.13.93.05 1.86.11 2.78.17.27.02.47-.05.61-.29z"></path><path fill="#76361B" d="M4.285 12.85c.58.15 1.09.44 1.47.87.4.44.72.94 1.08 1.41-.11.05-.21.1-.32.15-.05-.06-.11-.12-.16-.18.05-.13-.01-.18-.14-.18-.68-.66-1.19-1.47-1.93-2.07"></path><path fill="#A9562B" d="M18.115 16.32c-.1-.22-.3-.37-.36-.64-.05-.29-.36-.33-.62-.29-.21.03-.4.08-.53-.12.68-.37 1.37-.48 2.08-.15-.18.4-.16.89-.56 1.2z"></path><path fill="#76361B" d="M3.455 11.94c.14-.29.28-.57.42-.86.06.02.13.04.19.06.18.2.49-.03.67.16.4.41.95.57 1.44.84.33.18.67.37.84.72-.57.15-.75-.41-1.15-.59-.43-.19-.93-.33-1.21-.78-.06-.09-.29-.15-.32 0-.1.5-.52.43-.85.52-.02-.03-.04-.05-.04-.09z"></path><path fill="#954D2A" d="M4.075 11.14c-.06-.02-.13-.04-.19-.06 0-.08-.02-.16-.03-.24.22-.31.6-.55.49-1 .03-.02.05-.05.08-.07.17.06.22.21.29.35.23.39.76.55.86 1.04-.49-.16-.98-.44-1.51 0zM12.045 18.64l.63.51c-.98.05-1.84-.24-2.63-.76.26-.1.5 0 .75 0 .1.03.2.07.3.1.24.22.51.23.8.1.05.02.1.03.15.05"></path><path fill="#76361B" d="M6.925 15.31c.08.03.21.03.25.09.51.82 1.31 1.36 2.05 1.95.08.07.13.17.19.26-.27-.01-.47-.14-.68-.29-.53-.37-.87-.94-1.48-1.21-.05-.05-.09-.11-.14-.16.08-.25-.34-.35-.19-.63z"></path><path fill="#C27142" d="M6.525 10.22c-.25.08-.51.16-.76.24-.21 0-.32-.13-.4-.29.02-.13.05-.26.07-.38.57.03 1.15-.04 1.72-.09-.02.19-.11.29-.32.25-.22-.04-.29.09-.31.27"></path><path fill="#954D2A" d="M7.255 16.1c.61.27.95.84 1.48 1.21.21.15.41.28.68.29.07.05.13.1.19.15.08.17.16.34.23.51-.99-.58-1.86-1.29-2.58-2.16"></path><path fill="#76361B" d="M9.845 18.27c-.08-.17-.16-.34-.23-.51.49.05.9.24 1.19.64-.25 0-.5-.1-.75 0-.07-.04-.13-.08-.2-.12z"></path><path fill="#C27142" d="M4.715 10.11c-.07-.14-.12-.29-.29-.34.31-.37.38-.37.86-.03-.07.12-.14.23-.22.35-.12 0-.23.02-.35.03z"></path><path fill="#954D2A" d="M6.925 15.31c-.15.28.27.38.19.63-.26-.17-.45-.4-.6-.66.11-.05.21-.1.32-.15z"></path><path fill="#B8602E" d="M5.075 10.08c.07-.12.14-.23.22-.35l.15.06c-.02.13-.05.26-.07.38-.1-.03-.19-.07-.29-.1z"></path><path fill="#76361B" d="M3.775 12.6c.21-.06.35 0 .43.19-.17-.01-.33-.05-.43-.19"></path><path fill="#954D2A" d="M6.215 14.92c.12 0 .19.04.14.18-.05-.06-.09-.12-.14-.18"></path><path fill="#DC8F4C" d="M8.045 9.57c-.1.09-.21.11-.32.01.1-.08.21-.07.32-.01"></path><path fill="#76361B" d="M3.695 12.55s.05.02.06.04h-.05z"></path><path fill="#863F1F" d="M4.075 11.14c.52-.43 1.01-.15 1.51 0l.45.15c.12.35.46.49.73.69.69.53 1.48.95 1.85 1.8-.38.09-.58-.43-.99-.24-.03-.06-.06-.13-.09-.19.04-.31-.17-.23-.34-.2-.05-.09-.1-.19-.15-.28-.18-.35-.52-.54-.84-.72-.49-.27-1.04-.44-1.44-.84-.19-.19-.49.04-.67-.16z"></path><path fill="#76361B" d="M11.895 18.59c-.29.13-.57.12-.8-.1.28-.05.57-.15.8.1M7.175 13.15c.17-.03.39-.11.34.2-.16 0-.28-.06-.34-.2"></path><path fill="#EFC28E" d="M16.785 11.19c.11.18.09.36-.08.49s-.36.33-.59.14c-.13-.1-.19-.19-.35 0a.98.98 0 0 1-1.31.19c-.15-.1-.28-.26-.48-.24-.63.07-.97-.33-1.28-.73-.34-.44-.9-.66-1.19-1.15-.06-.1-.26-.16-.16-.29.06-.08.23-.12.35-.14.92-.11 1.86-.17 2.65.35.67.44 1.56.49 2.14 1.09.1.1.24.16.3.3z"></path><path fill="#863F1F" d="M15.255 16.15c.45-.1.88.07 1.33.04.24-.02.56.24.38.5-.34.5.13.32.36.44-.84.77-1.72 1.39-2.83 1.66-.11-.59.08-.79.64-.67.14.03.27.03.35-.1.18-.27.45-.44.7-.63.39-.29.36-.46-.04-.73-.28-.2-.67-.21-.89-.5zM11.855 15.61c-.23.13-.48.2-.69.05-.53-.38-1.17-.56-1.71-.92-.36-.25-.63-.57-.86-.94.2-.02.4-.03.6-.05.31.21.63.42.94.63-.05.47.34.57.65.64.43.1.76.31 1.06.58zM12.375 15.35c.12.37.57.34.78.59-.48.05-.92-.05-1.3-.34.15-.12.31-.23.47-.35.02.03.04.06.05.09zM14.055 15.99c.39-.05.79-.11 1.1.2-.39.03-.82.25-1.1-.2"></path><path fill="#A9562B" d="M12.375 15.35s-.03-.06-.05-.09c-.59-.48-1.33-.65-2.02-.94-.04-.02-.1.04-.16.06-.31-.21-.63-.42-.94-.63-.44-.81-1.38-1.1-1.96-1.76-.32-.36-.74-.56-1.21-.69l-.45-.15c-.1-.49-.63-.65-.86-1.04l.35-.03c.1.03.19.07.29.1.08.16.19.29.4.29.99.73 1.88 1.59 3 2.16.39.2.51.68.98.86.66.25 1.24.66 1.95.84.49.12.88.48 1.4.58.75.14 1.5.17 2.26.21.36.02.73.05 1.04.25-.13.24-.34.31-.61.29-.93-.06-1.86-.11-2.78-.17-.22-.01-.38-.25-.63-.13z"></path><path fill="#954D2A" d="M6.035 11.3c.47.13.89.33 1.21.69.59.66 1.53.95 1.96 1.76-.2.01-.4.03-.6.04-.36-.84-1.16-1.27-1.85-1.8-.26-.2-.6-.34-.72-.69M10.145 14.38c.05-.02.12-.07.16-.06.69.28 1.44.46 2.02.94l-.46.34c-.31-.27-.63-.49-1.06-.58-.31-.07-.7-.17-.65-.64z"></path><path fill="#5F2814" d="M18.425 11.06c-.12.01-.19.07-.19.18 0 .02 0 .03-.03.04-.28.18-.5.41-.63.7-.14.29-.22.61-.33.92 0 .04-.01.07-.02.11-.04.03-.11.05-.12.09-.13.52-.46.93-.75 1.36-.03.05-.04.11-.06.17l-.08.11c-.25.11-.43.27-.52.53-.05.03-.09.07-.14.1-.16.02-.32.01-.4.18-.02.02-.05.03-.07.05-.18-.05-.35 0-.52.04-.36.07-.65-.1-.7-.45-.03-.2.14-.36.28-.45s-.03.15.14.17c.09-.29.42-.38.58-.68.13-.24.48-.37.66-.59.37-.46.82-.87 1.02-1.45 0-.04.01-.08.02-.12a.18.18 0 0 0 .15-.16c0-.06.02-.12.03-.17.32-.01.32-.34.5-.5.19-.17.43-.33.51-.61.01-.06.13-.13.17-.05.14.24.34.14.53.13.08.11.08.21-.02.31-.01 0-.02.02-.02.03z"></path><path fill="#CC763E" d="M10.915 13.52c.06.17.15.26.37.23.23-.03.45-.1.71 0 .16.06.44-.05.55-.2.14-.19.32-.21.53-.23.35-.04.68-.12.94-.37.19-.18.18-.43.32-.63.06-.08.08-.17.19-.2.11-.02.19-.1.22-.2.17-.52.62-.83.99-1.2.09-.1.27-.16.24-.32-.03-.17-.21-.07-.31-.1-.06-.02-.06-.07-.07-.12h.1c.07.03.13.02.17-.04.1-.03.21-.06.32-.03.04.1.11.14.21.08.11-.06.17 0 .2.09-.07.25-.17.46-.39.65-.22.18-.23.51-.46.72-.28.26-.5.58-.75.86-.1.12-.23.21-.38.29-.22.12-.35.36-.51.56-.14.18-.31.27-.51.35-.38.15-.79.25-1.14.43-.52.27-1.07.22-1.62.28-.15-.36-.09-.72.02-1.07.08.04.05.12.07.19z"></path><path fill="#DC8F4C" d="M11.095 12.64c.11.04.08.11.05.19-.08.28.09.44.39.37.06-.01.12-.08.17-.04.45.32.78-.1 1.13-.21.2-.07.5-.18.67-.46.16-.25.41-.52.46-.77.09-.39.45-.49.6-.78.06-.1.15-.19.05-.32-.09-.12-.21-.08-.34-.09s-.29.2-.4-.04c.55-.17 1.1-.3 1.68-.3 0 .05.01.1.07.12.11.03.28-.07.31.11.03.16-.14.22-.24.32-.36.37-.81.68-.99 1.2-.03.09-.11.17-.22.2-.12.03-.14.12-.19.2-.14.2-.13.45-.32.63-.27.25-.59.33-.94.37-.21.02-.38.04-.53.23-.11.15-.39.26-.55.2-.26-.1-.48-.02-.71 0-.22.02-.31-.07-.37-.23-.02-.06.01-.14-.07-.19-.02-.27.22-.44.25-.69z"></path><path fill="#E4A868" d="M11.215 12.41c.57-1.04 1.45-1.7 2.68-1.92.1.24.27.03.4.04.12.01.25-.03.34.09.1.13 0 .22-.05.32-.15.29-.52.39-.6.78-.06.25-.3.52-.46.77-.18.28-.47.39-.67.46-.34.12-.67.53-1.13.21-.05-.04-.12.02-.17.04-.3.07-.46-.09-.39-.37.02-.08.06-.15-.05-.19 0-.1.08-.16.12-.23zm.27.32c.11.04.24.11.33-.02.05-.08.07-.13.18-.06.24.15.54.1.72-.12.06-.08.1-.18.21-.2.34-.07.45-.33.55-.59.11-.29.36-.5.43-.8.01-.06.11-.12.03-.18-.05-.03-.14-.03-.21-.01-.5.1-1 .22-1.33.62-.28.34-.74.51-.94.92-.03.07-.1.12-.11.21-.03.11.01.2.12.24z"></path><path fill="#76361B" d="M14.835 15.97s-.03.02-.05.02c-.33 0-.64.12-.98.09-.04-.33-.17-.4-.44-.25-.07.04-.13.06-.2 0-.14-.11-.31-.15-.47-.21-.25-.09-.27-.18-.1-.39.12-.15.32-.22.39-.41h.06c.21-.05.47 0 .54-.29.16-.06.31-.12.47-.17.26-.05.47-.18.62-.39.14.03.28.02.37-.09.21-.29.52-.49.74-.77.15-.19.24-.4.3-.63.21-.02.23-.33.48-.3-.2.57-.65.99-1.02 1.45-.18.23-.53.35-.66.59-.16.29-.49.39-.58.68-.17-.03 0-.26-.14-.17s-.31.25-.28.45c.04.34.33.52.7.45.17-.04.34-.09.52-.04-.08.12-.16.25-.24.37z"></path><path fill="#D2C2B2" d="M19.735 7.47c-.06 0-.08.11-.09.18-.04.29-.08.59-.13.88-.03.18.03.26.22.27-.03.15-.3.26-.09.43.19.15.37 0 .54-.09.16-.09.27-.22.25-.41-.02-.16-.17-.15-.29-.18.05-.16.25-.21.31-.36.13.02.28 0 .36.15.02.08.1.09.16.14.17.13.23.23-.01.37-.25.14-.35.44-.65.56-.29.11-.56.18-.86.06-.1-.04-.19-.08-.29 0-.31.24-.62.48-.93.71h-.16c-.17-.13-.4-.19-.42-.44.15 0 .22-.13.33-.2.42-.28.68-.62.59-1.17-.05-.28.04-.57.18-.83.09-.16.16-.35.41-.36-.34.38-.49.82-.44 1.33.04.47-.19.82-.59 1.09-.12.08-.35.16-.21.35.14.18.31.05.46-.05.28-.18.46-.45.72-.64.11-.08.17-.22.13-.35-.15-.52.12-.99.17-1.48.03-.25 0-.29-.24-.25.2-.24.46-.26.77-.04 0 .15.13.35-.18.37z"></path><path fill="#B8602E" d="M17.025 10.28c-.4.55-.72 1.14-1.22 1.63-.17.17-.15.44-.37.61-.3.24-.54.55-.88.76-.24.15-.38.4-.64.54-.37.19-.76.34-1.15.48-.18.07-.37.15-.5.3-.04 0-.08 0-.12-.01-.42-.08-.8-.02-1.11.26-.14-.12-.12-.3-.2-.45.54-.06 1.09 0 1.62-.28.35-.18.76-.29 1.14-.43.2-.08.37-.17.51-.35.16-.19.28-.44.51-.56.15-.08.27-.17.38-.29.25-.29.47-.6.75-.86.23-.21.25-.54.46-.72.22-.18.32-.4.39-.65h.44z"></path><path fill="#954D2A" d="M12.625 14.65c.47-.19.95-.37 1.43-.55.11-.04.16-.19.31-.17 0 .21-.24.27-.31.44-.16.06-.31.12-.47.17-.21.04-.43.07-.54.29h-.06c-.25.02-.45.18-.69.24-.13.03-.26.22-.12.32.26.2-.01.19-.11.29.57.26 1.13.44 1.76.4.33.03.65-.1.98-.09-.95.41-2.57.11-3.27-.6.02-.13.1-.24.08-.39-.02-.16.13-.23.28-.25.12-.02.22-.02.26-.15.04 0 .08 0 .12.01.11.1.23.11.37.05z"></path><path fill="#9C8D80" d="M18.865 9.98c.3-.2.55-.36.95-.22.43.14.71-.23 1.03-.42.21-.13.39-.32.59-.48.06.15.02.29-.04.43-.26.64-.89.9-1.63.68-.2-.06-.39-.1-.55.04-.25.22-.54.4-.74.66-.12-.13-.24-.25-.36-.38 0-.04-.02-.09-.03-.13h.16c.26.1.46-.06.63-.18z"></path><path fill="#B5A798" d="M19.165 9.44c.1-.07.19-.04.29 0 .3.13.57.06.86-.06.3-.12.4-.42.65-.56s.19-.23.01-.37c-.06-.04-.13-.06-.16-.14.32.06.55.21.62.53-.19.16-.37.35-.59.48-.32.2-.6.56-1.03.42-.41-.14-.66.02-.95.22-.17.11-.37.28-.63.18.31-.24.62-.48.93-.71zM20.095 8.54c-.08 0-.12.03-.14.1l-.21.15c-.19 0-.25-.09-.22-.27.05-.29.09-.58.13-.88.01-.07.02-.17.09-.18.32-.01.18-.22.18-.37.24.11.3.33.35.56.04.18.03.38.19.52-.07.15-.26.2-.31.36h-.05z"></path><path fill="#76361B" d="M17.515 12.69c-.06.02-.09.05-.04.12l-.06.12c-.06 0-.13-.02-.19-.03.11-.31.19-.62.33-.92.13-.29.35-.52.63-.7-.29.44-.42.95-.67 1.4z"></path><path fill="#A9562B" d="M11.025 14.85c.32-.29.7-.34 1.11-.26-.03.13-.14.14-.26.15-.14.02-.3.09-.28.25.02.15-.06.26-.08.39-.26-.1-.33-.36-.49-.54z"></path><path fill="#76361B" d="M18.465 10.72c-.19 0-.39.11-.53-.13-.04-.08-.15 0-.17.05-.07.28-.31.44-.51.61-.18.16-.18.48-.5.5.03-.21.18-.37.32-.52.21-.22.47-.4.61-.68.07-.13.26-.06.32-.19l.09-.06c.12.13.24.25.36.38v.05z"></path><path fill="#954D2A" d="M17.225 10.61c-.03-.28.22-.44.28-.69.01-.08.02-.17.09-.23.02 0 .03.02.05.02.02.25.26.32.42.44 0 .04.02.09.03.13l-.09.06c-.34-.14-.55.09-.79.25zM15.155 15.55c.18.02.32-.03.4-.18.05-.03.09-.07.14-.1.13-.05.24-.14.39-.13-.33.4-.73.7-1.25.83.08-.12.16-.25.24-.37.02-.02.05-.03.07-.05z"></path><path fill="#76361B" d="M17.215 13.37s-.03.07-.05.11c-.28.24-.36.6-.57.88-.09.11-.17.21-.31.27.02-.06.02-.12.06-.17.29-.43.62-.85.75-1.36 0-.04.08-.06.12-.09.13.12-.08.24 0 .36"></path><path fill="#C27142" d="M16.375 10.19c-.1.06-.17.02-.21-.08.31-.07.62-.12.91-.24.03.06.07.13.1.19-.02.1-.05.18-.16.22h-.44c-.04-.09-.1-.15-.2-.09"></path><path fill="#954D2A" d="M16.175 15.04c.01-.1.02-.21.04-.31l.08-.11c.14-.05.22-.15.31-.27.21-.28.3-.64.57-.88-.24.58-.58 1.09-1 1.56z"></path><path fill="#76361B" d="M16.085 15.13c-.15-.01-.26.08-.39.13.08-.26.27-.42.52-.53-.01.1-.02.21-.04.31-.03.03-.06.06-.08.1z"></path><path fill="#C27142" d="M17.315 9.96c-.06-.05-.11-.1-.17-.15.19-.26.23-.27.45-.12-.08.06-.08.14-.09.23-.06.01-.13.03-.19.04"></path><path fill="#954D2A" d="M17.225 12.9c.06 0 .13.02.19.03-.03.16-.1.31-.2.45-.08-.12.12-.24 0-.36 0-.04.01-.07.02-.11z"></path><path fill="#B8602E" d="M17.185 10.06c-.03-.06-.07-.13-.1-.19.02-.02.04-.04.07-.06.06.05.11.1.17.15l-.13.1z"></path><path fill="#76361B" d="M18.215 11.24c0-.12.08-.17.19-.17-.03.09-.11.14-.19.17"></path><path fill="#954D2A" d="M17.475 12.8c-.05-.06-.02-.09.04-.12-.01.04-.03.08-.04.12"></path><path fill="#DC8F4C" d="M15.845 10.14c-.04.07-.1.08-.17.04.05-.04.1-.07.17-.04"></path><path fill="#76361B" d="M18.445 11.05h-.02s.01-.02.02-.02z"></path><path fill="#863F1F" d="M17.685 10.55c-.14.28-.4.46-.61.68-.14.15-.29.3-.32.52 0 .06-.02.12-.03.17-.1.01-.22 0-.15.16 0 .04-.01.08-.02.12-.25-.03-.26.28-.48.3.05-.51.4-.86.67-1.25.1-.15.26-.28.27-.48l.21-.15c.23-.16.44-.39.79-.25-.06.13-.26.06-.33.19z"></path><path fill="#76361B" d="M15.555 15.36c-.09.16-.23.2-.4.18.08-.17.25-.16.4-.18M16.575 12.08c-.07-.16.05-.15.15-.16-.01.09-.06.14-.15.16"></path><path fill="#EFC28E" d="M11.465 12.27c.2-.41.66-.58.94-.92.33-.4.83-.52 1.33-.62.07-.01.16-.02.21.01.07.06-.02.12-.03.18-.07.3-.33.51-.43.8-.1.26-.21.53-.55.59-.11.02-.15.13-.21.2-.17.22-.48.27-.72.12-.11-.07-.13-.01-.18.06-.09.14-.22.07-.33.02-.11-.04-.15-.13-.12-.24 0-.08.07-.14.11-.21z"></path><path fill="#863F1F" d="M12.595 15.23c-.16.21-.15.3.1.39.16.06.33.1.47.21.06.05.13.03.2 0 .27-.15.4-.08.44.25-.62.05-1.19-.14-1.76-.4.1-.1.38-.09.11-.29-.14-.11 0-.3.12-.32.24-.05.44-.22.69-.24-.07.19-.27.26-.39.41zM14.675 13.98c.12-.19.25-.36.46-.48.15-.09.34-.21.23-.44.13-.16.26-.32.39-.49.11-.03.21-.05.32-.08-.06.23-.15.45-.3.64-.22.28-.53.48-.74.77-.08.11-.23.12-.37.09zM14.375 13.87c.1.03.2.07.3.1-.15.22-.36.34-.62.39.07-.17.31-.23.31-.44 0-.02 0-.04.01-.06zM13.045 14.83c.11-.21.33-.25.54-.29-.07.28-.33.24-.54.29"></path><path fill="#E5D8CA" d="M19.395 7.4c-.06.49-.32.96-.17 1.48.04.13-.02.27-.13.35-.26.2-.44.47-.72.64-.15.1-.32.23-.46.05-.14-.19.09-.27.21-.35.4-.26.63-.62.59-1.09-.04-.51.1-.95.44-1.33.23-.05.27 0 .24.25M20.435 8.72c.02.19-.09.32-.25.41s-.35.24-.54.09c-.21-.17.06-.29.09-.43l.21-.15c.08 0 .12-.03.14-.1h.05c.11.04.27.02.29.18z"></path><path fill="#A9562B" d="M14.055 14.1c-.48.18-.95.36-1.43.55-.14.05-.26.05-.37-.05.13-.16.32-.24.5-.3.39-.14.78-.29 1.15-.48.26-.14.4-.39.64-.54.34-.21.58-.52.88-.76.22-.17.2-.44.37-.61.49-.48.82-1.08 1.22-1.63.11-.03.14-.12.16-.22.05-.03.09-.07.13-.1.06-.01.13-.03.19-.04-.06.24-.31.41-.28.69l-.21.15c-.22.14-.41.32-.52.56-.2.44-.64.75-.74 1.25-.13.16-.26.32-.39.49-.03 0-.07-.02-.09 0-.31.26-.68.48-.9.83 0 .02 0 .04-.01.06-.15-.02-.2.13-.31.17z"></path><path fill="#D2C2B2" d="M20.095 8.54c-.02.07-.06.1-.14.1.02-.07.06-.1.14-.1"></path><path fill="#954D2A" d="M16.755 11.24c-.27.39-.62.74-.67 1.25-.11.03-.21.05-.32.08.09-.5.54-.8.74-1.25.11-.24.3-.42.52-.56 0 .2-.16.33-.27.48M15.135 13.5c-.21.12-.34.29-.46.48-.1-.03-.2-.07-.3-.1.23-.35.59-.56.9-.83.02-.01.06 0 .09 0 .11.24-.08.36-.23.44z"></path></g></svg>